<?xml version="1.0" encoding="utf-8"?>
<!DOCTYPE svg PUBLIC "-//W3C//DTD SVG 1.1//EN" "http://www.w3.org/Graphics/SVG/1.1/DTD/svg11.dtd">
<svg version="1.1" id="Layer_1" xmlns="http://www.w3.org/2000/svg" xmlns:xlink="http://www.w3.org/1999/xlink" x="0px" y="0px"
	 viewBox="0 0 1883 1885" enable-background="new 0 0 1883 1885" xml:space="preserve">
<radialGradient id="SVGID_1_" cx="950.1485" cy="631.9435" r="1107.588" gradientUnits="userSpaceOnUse">
	<stop  offset="0" style="stop-color:#E5E2DF"/>
	<stop  offset="0" style="stop-color:#EDE3D0"/>
	<stop  offset="0" style="stop-color:#FFE6B1"/>
	<stop  offset="0.0584" style="stop-color:#FFF2CD"/>
	<stop  offset="0.1067" style="stop-color:#FFFDE7"/>
	<stop  offset="0.1215" style="stop-color:#FDF8DD"/>
	<stop  offset="0.1464" style="stop-color:#F6EBC3"/>
	<stop  offset="0.1784" style="stop-color:#ECD598"/>
	<stop  offset="0.2158" style="stop-color:#DDB75E"/>
	<stop  offset="0.2472" style="stop-color:#D09B27"/>
	<stop  offset="0.2977" style="stop-color:#D19E29"/>
	<stop  offset="0.328" style="stop-color:#D5A62F"/>
	<stop  offset="0.3531" style="stop-color:#DBB438"/>
	<stop  offset="0.3752" style="stop-color:#E5C846"/>
	<stop  offset="0.3953" style="stop-color:#F0E258"/>
	<stop  offset="0.3989" style="stop-color:#F3E85C"/>
	<stop  offset="0.4355" style="stop-color:#E9DF5D"/>
	<stop  offset="0.4971" style="stop-color:#CFC65E"/>
	<stop  offset="0.5757" style="stop-color:#A59E60"/>
	<stop  offset="0.6461" style="stop-color:#797563"/>
	<stop  offset="0.6958" style="stop-color:#6F7E64"/>
	<stop  offset="0.7416" style="stop-color:#628A66"/>
	<stop  offset="0.7446" style="stop-color:#5D8767"/>
	<stop  offset="0.7682" style="stop-color:#3C766D"/>
	<stop  offset="0.7925" style="stop-color:#216872"/>
	<stop  offset="0.8172" style="stop-color:#0F5E75"/>
	<stop  offset="0.8429" style="stop-color:#045877"/>
	<stop  offset="0.8708" style="stop-color:#005678"/>
	<stop  offset="0.8714" style="stop-color:#02577A"/>
	<stop  offset="0.8839" style="stop-color:#1F719B"/>
	<stop  offset="0.8967" style="stop-color:#3685B6"/>
	<stop  offset="0.9099" style="stop-color:#4794C8"/>
	<stop  offset="0.9234" style="stop-color:#519CD3"/>
	<stop  offset="0.9382" style="stop-color:#549FD7"/>
	<stop  offset="0.9413" style="stop-color:#5FA5DA"/>
	<stop  offset="0.9523" style="stop-color:#80B8E3"/>
	<stop  offset="0.9636" style="stop-color:#9BC6E9"/>
	<stop  offset="0.9751" style="stop-color:#ADD1EE"/>
	<stop  offset="0.987" style="stop-color:#B8D7F1"/>
	<stop  offset="1" style="stop-color:#BCD9F2"/>
</radialGradient>
<linearGradient id="SVGID_2_" gradientUnits="userSpaceOnUse" x1="398.6287" y1="971.9435" x2="1489.4133" y2="971.9435">
	<stop  offset="0" style="stop-color:#B73E01"/>
	<stop  offset="0.1576" style="stop-color:#D9BFBA"/>
	<stop  offset="0.2424" style="stop-color:#D7BEB9"/>
	<stop  offset="0.3394" style="stop-color:#E9D6D3"/>
	<stop  offset="0.3708" style="stop-color:#E6D4D2"/>
	<stop  offset="0.3897" style="stop-color:#DECDD0"/>
	<stop  offset="0.3939" style="stop-color:#DBCACF"/>
	<stop  offset="0.4005" style="stop-color:#EBD9DC"/>
	<stop  offset="0.409" style="stop-color:#F6E4E6"/>
	<stop  offset="0.4211" style="stop-color:#FDEAEB"/>
	<stop  offset="0.4545" style="stop-color:#FFECED"/>
	<stop  offset="0.4554" style="stop-color:#FFECED"/>
	<stop  offset="0.4606" style="stop-color:#FFECED"/>
	<stop  offset="0.4625" style="stop-color:#F1DCDD"/>
	<stop  offset="0.4651" style="stop-color:#E3CDCE"/>
	<stop  offset="0.4682" style="stop-color:#DBC4C5"/>
	<stop  offset="0.4727" style="stop-color:#D8C1C2"/>
	<stop  offset="0.4765" style="stop-color:#DCC5C6"/>
	<stop  offset="0.4884" style="stop-color:#E3CCCC"/>
	<stop  offset="0.5212" style="stop-color:#E5CECE"/>
	<stop  offset="0.6242" style="stop-color:#F3EBF7"/>
	<stop  offset="0.6485" style="stop-color:#F3EBF7"/>
	<stop  offset="0.703" style="stop-color:#C78665"/>
	<stop  offset="0.7758" style="stop-color:#C78665"/>
	<stop  offset="0.8424" style="stop-color:#CFA894"/>
	<stop  offset="0.8909" style="stop-color:#CDB0AE"/>
	<stop  offset="1" style="stop-color:#C69184"/>
</linearGradient>
<path fill="url(#SVGID_1_)" stroke="url(#SVGID_2_)" stroke-width="7" stroke-miterlimit="10" d="M549.5709,1729.5
	c14.3343-49.825,28.6619-99.6519,43.0043-149.4745c25.677-89.1962,51.8116-178.2637,76.9192-267.62
	c25.2016-89.6909,55.1865-177.8218,85.119-265.975c10.1501-29.8926,17.4114-60.5318,25.8056-90.884
	c5.0157-18.1361,10.8068-36.0058,19.5853-52.7487c5.0191-9.5731,10.9597-18.512,19.0199-25.8267
	c2.192-1.9891,2.4413-4.3146,2.3858-6.8951c-0.2358-10.9687-2.7211-21.5921-5.3085-32.1527
	c-6.5429-26.7061-13.3362-53.3508-20.1356-80.4437c-3.6315,3.005-6.0004,6.6192-8.2294,10.3177
	c-6.993,11.6036-9.6346,24.6533-12.4034,37.6555c-2.8271,13.2754-5.6818,26.5353-11.7985,38.8195
	c-3.879,7.7899-8.5566,15.0841-14.9245,20.9875c-15.3422,14.2228-26.8856,31.2372-37.1664,49.238
	c-5.6785,9.9424-11.4063,19.8578-16.9751,29.8616c-12.614,22.6591-30.0344,41.7417-46.0378,61.863
	c-15.4117,19.3774-31.2867,38.379-49.5283,55.2375c-9.8905,9.1406-20.6013,16.6113-34.2825,19.1985
	c-17.3844,3.2875-28.9466-2.6218-35.3808-19.0657c-5.2059-13.3048-6.3972-27.4757-8.5049-41.4394
	c-0.2717-1.8003-0.5674-3.5969-1.3164-5.4063c-0.5629,3.5949-0.9205,7.2362-1.7223,10.777
	c-5.0807,22.433-18.6087,38.6837-37.733,50.5961c-18.6416,11.6117-39.0655,16.7023-61.0198,15.9342
	c-0.6937-1.9707,0.7355-3.0393,1.4803-4.2484c5.95-9.6603,13.2736-18.3071,20.2337-27.2212
	c7.5741-9.7002,15.1826-19.381,20.8769-30.3662c4.3511-8.3936,7.5733-17.1025,6.3143-26.8066
	c-0.6853-5.2811-0.9044-5.3243-5.5705-2.9163c-8.192,4.2278-15.5287,9.8191-23.3501,14.6375
	c-6.6732,4.111-13.6554,7.3751-21.5276,8.5027c-5.1117,0.7323-10.1375,0.5034-15.1202-0.5306
	c-0.2808-0.6516-0.1682-1.1163,0.3284-1.5479c13.827-12.0197,25.6863-25.8958,37.4641-39.839
	c15.5389-18.3958,33.611-33.5106,55.7179-43.4761c4.1421-1.8672,6.6737-5.2136,7.9713-9.4244
	c1.2878-4.1793,2.3886-8.4267,3.3486-12.6945c1.943-8.6379,5.9135-15.918,12.3463-22.2216
	c25.9727-25.4509,51.4167-51.3986,73.9355-80.0661c31.7639-40.4366,57.525-84.5574,80.8028-130.2532
	c20.0842-39.4266,38.2403-79.7435,56.1302-120.1912c2.2836-5.1629,5.0461-10.1132,7.5685-15.1712
	c9.33-18.7084,22.0511-34.3555,39.7866-45.9c10.2966-6.7022,20.1458-14.1118,29.7816-21.7854
	c20.2806-16.1509,30.446-37.0043,30.0715-62.9952c-0.1398-9.7014,2.8461-18.6353,7.2774-27.1616
	c3.7892-7.2905,8.2292-14.1895,12.731-21.0372c5.5062-8.3753,6.6489-17.2505,3.8132-26.7452
	c-0.8892-2.9772-1.6827-5.999-2.8145-8.8849c-5.0411-12.8546-5.2162-25.8555-1.8102-39.1284
	c6.028-23.4894,15.8422-45.0197,32.2463-63.1708c8.5476-9.4579,18.9083-15.6047,31.9012-16.6745
	c6.8587-0.5647,13.2364,0.5916,18.8459,4.8337c0.9492,0.7178,1.6219,1.8517,3.2191,0.7163
	c14.0528-9.9897,27.6012-5.8827,40.7849,1.8883c5.8941,3.4742,10.6146,8.4873,14.8148,13.8494
	c16.3885,20.9222,26.6188,44.5303,30.3195,70.8798c1.1024,7.8495-0.2769,15.481-2.731,22.9683
	c-1.7583,5.3644-3.7106,10.6662-4.8618,16.2277c-1.6309,7.8787-0.3272,15.1636,3.8895,21.967
	c4.5417,7.3278,9.3743,14.4746,13.3854,22.1296c4.8092,9.1779,7.4839,18.8011,7.4528,29.2607
	c-0.0724,24.2921,9.5073,44.0817,28.2181,59.5787c10.1475,8.4046,20.7488,16.2277,31.7423,23.4063
	c17.7368,11.582,30.1665,27.3917,39.7662,45.9448c10.2748,19.8578,18.4202,40.6636,27.807,60.9088
	c26.3478,56.8246,53.454,113.2591,88.2921,165.5729c24.4844,36.7663,52.9484,70.1935,84.2695,101.2578
	c6.2274,6.1763,12.2738,12.5414,18.6466,18.5624c5.6534,5.3413,9.2156,11.7199,10.9854,19.2068
	c0.4221,1.786,1.0797,3.5347,1.3225,5.3417c1.426,10.6134,6.4672,17.767,16.8083,22.3277
	c15.3944,6.7891,28.4104,17.3952,39.9606,29.6581c15.9758,16.9614,29.8269,35.8964,48.3533,51.4012
	c-7.313,2.1719-13.8981,1.7075-20.4894,0.1462c-8.1284-1.9255-15.1251-6.2038-21.9856-10.7276
	c-6.4918-4.2808-12.9012-8.6808-19.833-12.2603c-2.3031-1.1893-3.3678-1.1747-3.9364,1.7831
	c-1.2157,6.3244-0.3882,12.3812,1.5895,18.3719c3.1859,9.6507,8.4473,18.2056,14.4553,26.2722
	c8.3617,11.2267,17.0404,22.2167,25.5209,33.3557c2.8103,3.6914,5.4106,7.5402,7.9229,12.4257
	c-24.7878,0.9178-46.9204-5.1338-66.707-19.0541c-20.2164-14.2228-32.601-33.3018-35.0463-58.4542
	c-1.4197,9.1803-2.7854,18.3694-4.2775,27.5381c-1.0913,6.7052-2.6549,13.3066-5.1785,19.6379
	c-6.5313,16.3859-18.0571,22.4073-35.4263,18.9723c-11.3083-2.2366-20.874-7.5715-29.4935-15.0016
	c-13.9814-12.0521-26.3871-25.6262-38.0944-39.818c-18.2643-22.14-37.1619-43.8087-53.4402-67.4999
	c-11.3783-16.5599-20.1211-34.727-30.5031-51.9056c-8.8867-14.7047-19.0135-28.3842-31.5464-40.2877
	c-14.0704-13.364-20.8318-30.6386-25.0558-49.1358c-2.4841-10.8785-4.3292-21.9106-7.6799-32.5827
	c-3.1205-9.9387-7.5343-19.1566-15.4727-27.2046c-1.546,6.4502-2.9109,12.3995-4.4011,18.3175
	c-6.382,25.345-13.5942,50.4863-18.7212,76.1382c-1.2191,6.0993-2.3536,12.2299-2.3507,18.486
	c0.001,2.236-0.0803,4.4782,1.8536,6.268c14.2086,13.1489,22.3053,30.0509,29.0374,47.7436
	c8.8165,23.1703,14.4391,47.2715,20.5103,71.236c8.4093,33.1936,20.188,65.319,31.3456,97.6143
	c34.6617,100.3276,64.5631,202.0986,93.6467,304.1416c31.365,110.0471,63.2805,219.9374,94.9474,329.8986
	c0.2311,0.8022,0.3422,1.6392,0.5092,2.46C1072.4355,1729.5,811.0032,1729.5,549.5709,1729.5z"/>
<linearGradient id="SVGID_3_" gradientUnits="userSpaceOnUse" x1="1470.9338" y1="882.9569" x2="1717.9825" y2="882.9569">
	<stop  offset="0" style="stop-color:#D6F0FF"/>
	<stop  offset="0.1091" style="stop-color:#316BFA"/>
	<stop  offset="0.1244" style="stop-color:#3352ED"/>
	<stop  offset="0.1404" style="stop-color:#3440E4"/>
	<stop  offset="0.1572" style="stop-color:#3535DE"/>
	<stop  offset="0.1758" style="stop-color:#3531DC"/>
	<stop  offset="0.2485" style="stop-color:#983173"/>
	<stop  offset="0.3333" style="stop-color:#E1A825"/>
	<stop  offset="0.3389" style="stop-color:#E3B344"/>
	<stop  offset="0.3453" style="stop-color:#E4BC60"/>
	<stop  offset="0.3522" style="stop-color:#E5C375"/>
	<stop  offset="0.3598" style="stop-color:#E6C884"/>
	<stop  offset="0.3687" style="stop-color:#E7CB8D"/>
	<stop  offset="0.3818" style="stop-color:#E7CC90"/>
	<stop  offset="0.4727" style="stop-color:#EDEDF2"/>
	<stop  offset="0.4828" style="stop-color:#E7E7EB"/>
	<stop  offset="0.4972" style="stop-color:#D4D4D9"/>
	<stop  offset="0.5141" style="stop-color:#B7B7BA"/>
	<stop  offset="0.5327" style="stop-color:#8D8D90"/>
	<stop  offset="0.5394" style="stop-color:#7D7D7F"/>
	<stop  offset="0.5469" style="stop-color:#8A8B8C"/>
	<stop  offset="0.5688" style="stop-color:#ACADAE"/>
	<stop  offset="0.5895" style="stop-color:#C4C5C6"/>
	<stop  offset="0.6086" style="stop-color:#D3D4D5"/>
	<stop  offset="0.6242" style="stop-color:#D8D9DA"/>
	<stop  offset="0.632" style="stop-color:#BDBCBD"/>
	<stop  offset="0.6486" style="stop-color:#888485"/>
	<stop  offset="0.664" style="stop-color:#5F5858"/>
	<stop  offset="0.6777" style="stop-color:#413838"/>
	<stop  offset="0.6891" style="stop-color:#2F2424"/>
	<stop  offset="0.697" style="stop-color:#281D1D"/>
	<stop  offset="0.7576" style="stop-color:#ABABB0"/>
	<stop  offset="0.7833" style="stop-color:#AFAFB4"/>
	<stop  offset="0.8082" style="stop-color:#BABABF"/>
	<stop  offset="0.8328" style="stop-color:#CCCED1"/>
	<stop  offset="0.857" style="stop-color:#E6E9EA"/>
	<stop  offset="0.8727" style="stop-color:#FBFFFF"/>
	<stop  offset="0.9333" style="stop-color:#B9C4D3"/>
	<stop  offset="1" style="stop-color:#322923"/>
</linearGradient>
<path fill="url(#SVGID_3_)" d="M1470.9338,792.0259c11.2386-6.0049,19.6738-15.1995,30.1729-21.582
	c1.2064-0.7334,2.4501-1.4172,3.7218-2.0299c10.3015-4.9645,17.6437-2.4672,22.765,7.7089
	c2.1726,4.3169,3.4052,8.9736,4.8779,13.5396c3.6886,11.4351,7.4222,22.8513,13.1582,33.4766
	c2.429,4.4996,5.2306,8.7532,9.1022,12.1698c5.668,5.0019,11.6865,5.3994,17.7407,0.825
	c10.5406-7.9645,15.5205-18.73,15.5942-31.9017c0.0309-5.511-0.2947-11.0134,0.1167-16.539
	c0.6926-9.3032,5.4418-15.4936,13.7731-19.2308c9.5765-4.2958,19.8522-5.4276,30.104-6.6046
	c21.0717-2.4193,42.3571-2.5496,63.3452-5.8848c6.4249-1.0211,12.8268-2.1763,19.0531-4.0853
	c2.9276-0.8977,4.02-0.1265,3.318,2.9088c-0.5403,2.3359-0.9073,4.728-1.6461,6.9993
	c-4.694,14.4301-11.0583,28.1213-18.4222,41.3701c-1.501,2.7006-3.3767,4.6925-6.4453,5.7075
	c-3.1135,1.0299-6.0425,2.7751-7.7615,5.6481c-5.7362,9.587-14.1139,16.8998-21.3486,25.1926
	c-2.0472,2.3466-3.9264,4.7078-5.337,7.559c-3.4646,7.0028-9.8123,10.2563-17.0101,12.2155
	c-8.2219,2.2379-16.785,2.4005-25.0828,4.1633c-1.6547,0.3516-3.3204,0.7343-4.9072,1.3074
	c-7.1328,2.576-10.442,7.4077-8.8175,14.7909c4.9404,22.4545,16.2274,40.8118,36.0945,53.1993
	c9.0421,5.638,19.1069,9.1278,28.838,13.3099c7.4147,3.1866,14.6433,6.738,21.3635,11.2353
	c2.5583,1.7123,4.9943,3.608,8.0472,5.8284c-5.3262,1.7582-10.665,2.4872-13.2583,7.4346
	c-2.7224,5.1935-0.0299,9.8581,2.209,14.9988c-2.6475,0.3785-5.0549,0.8533-7.4849,1.0442
	c-5.4204,0.4255-9.5275,2.8787-11.588,7.9261c-1.7882,4.3804-4.9639,5.8476-9.3451,5.6633
	c-1.1285-0.0475-2.2623,0.0497-3.3937,0.0503c-8.1108,0.0045-13.9197,3.3029-16.063,11.4496c-0.5603,0-0.8926,0.1061-1.05-0.0151
	c-8.9332-6.8752-11.4464-6.7819-19.6968,0.6682c-0.7966,0.7193-1.4163,2.1606-2.6567,1.7681
	c-1.4022-0.4432-1.2694-2.0592-1.4685-3.2594c-2.0576-12.4058-3.0321-24.9825-5.9523-37.2534
	c-5.1528-21.6515-13.8013-29.3898-35.8315-32.1862c-10.0964-1.2816-20.3403-1.0341-30.3611-3.1069
	c-8.8311-1.8268-16.345-5.8417-22.8293-12.1944c-17.6908-17.3316-23.5917-38.6865-21.8545-62.7029
	c0.9382-12.9728,2.2008-25.9221,3.1427-38.8947c0.3475-4.7899,0.1772-9.6043-0.8619-14.3554
	c-2.4745-11.3111-8.6997-16.6531-20.2942-17.4392C1474.9713,792.8013,1473.0955,793.4109,1470.9338,792.0259z"/>
<linearGradient id="SVGID_4_" gradientUnits="userSpaceOnUse" x1="165.0175" y1="882.9035" x2="412.116" y2="882.9035">
	<stop  offset="0" style="stop-color:#322923"/>
	<stop  offset="0.0667" style="stop-color:#B9C4D3"/>
	<stop  offset="0.1273" style="stop-color:#FBFFFF"/>
	<stop  offset="0.143" style="stop-color:#E6E9EA"/>
	<stop  offset="0.1672" style="stop-color:#CCCED1"/>
	<stop  offset="0.1918" style="stop-color:#BABABF"/>
	<stop  offset="0.2167" style="stop-color:#AFAFB4"/>
	<stop  offset="0.2424" style="stop-color:#ABABB0"/>
	<stop  offset="0.303" style="stop-color:#281D1D"/>
	<stop  offset="0.3109" style="stop-color:#2F2424"/>
	<stop  offset="0.3223" style="stop-color:#413838"/>
	<stop  offset="0.336" style="stop-color:#5F5858"/>
	<stop  offset="0.3514" style="stop-color:#888485"/>
	<stop  offset="0.368" style="stop-color:#BDBCBD"/>
	<stop  offset="0.3758" style="stop-color:#D8D9DA"/>
	<stop  offset="0.3914" style="stop-color:#D3D4D5"/>
	<stop  offset="0.4105" style="stop-color:#C4C5C6"/>
	<stop  offset="0.4312" style="stop-color:#ACADAE"/>
	<stop  offset="0.4531" style="stop-color:#8A8B8C"/>
	<stop  offset="0.4606" style="stop-color:#7D7D7F"/>
	<stop  offset="0.4673" style="stop-color:#8D8D90"/>
	<stop  offset="0.4859" style="stop-color:#B7B7BA"/>
	<stop  offset="0.5028" style="stop-color:#D4D4D9"/>
	<stop  offset="0.5172" style="stop-color:#E7E7EB"/>
	<stop  offset="0.5273" style="stop-color:#EDEDF2"/>
	<stop  offset="0.6182" style="stop-color:#E7CC90"/>
	<stop  offset="0.6313" style="stop-color:#E7CB8D"/>
	<stop  offset="0.6402" style="stop-color:#E6C884"/>
	<stop  offset="0.6478" style="stop-color:#E5C375"/>
	<stop  offset="0.6547" style="stop-color:#E4BC60"/>
	<stop  offset="0.6611" style="stop-color:#E3B344"/>
	<stop  offset="0.6667" style="stop-color:#E1A825"/>
	<stop  offset="0.7515" style="stop-color:#983173"/>
	<stop  offset="0.8242" style="stop-color:#3531DC"/>
	<stop  offset="0.8428" style="stop-color:#3535DE"/>
	<stop  offset="0.8596" style="stop-color:#3440E4"/>
	<stop  offset="0.8756" style="stop-color:#3352ED"/>
	<stop  offset="0.8909" style="stop-color:#316BFA"/>
	<stop  offset="1" style="stop-color:#D6F0FF"/>
</linearGradient>
<path fill="url(#SVGID_4_)" d="M412.116,792.004c-2.1585,1.5424-4.2005,0.7782-6.0782,0.9241
	c-11.6926,0.9081-18.3008,6.9255-20.2772,18.5118c-1.5684,9.1948-0.5111,18.3312,0.4182,27.476
	c1.5723,15.4744,3.5146,30.9387,1.3223,46.5167c-2.6569,18.8799-12.045,33.9293-26.722,45.6922
	c-8.2885,6.6427-18.4849,8.0924-28.7234,8.9576c-8.3061,0.702-16.6476,0.9266-24.8838,2.4698
	c-14.7646,2.7662-24.3216,10.9667-28.3463,25.6881c-3.4844,12.7457-4.7578,25.8309-6.7499,38.8113
	c-0.0429,0.2794-0.0288,0.5704-0.0963,0.8424c-0.5317,2.1425,0.1075,5.2925-1.8272,6.1765
	c-2.0466,0.9352-3.2415-2.1151-4.7906-3.3928c-5.9922-4.9423-9.6095-5.0712-15.8397-0.2555
	c-0.7696,0.5948-1.5447,1.1826-2.7243,2.085c-2.5747-10.1758-9.9516-12.511-18.9079-12.0956
	c-4.8744,0.2261-8.3679-1.2664-10.3541-6.1523c-1.9252-4.7357-5.9538-6.9544-11.0096-7.4127
	c-2.4872-0.2253-4.9573-0.638-7.5005-0.9745c5.0521-15.3466,4.1529-17.2014-10.9488-22.6003
	c5.5764-4.8901,11.7237-8.5513,18.0827-11.8806c9.6558-5.0554,19.9227-8.7355,29.8599-13.1603
	c24.4125-10.8702,38.5397-30.2531,45.4525-55.3532c2.9369-10.6636-0.9193-16.6044-11.7312-18.8945
	c-7.4533-1.5787-15.0888-2.2759-22.5952-3.6315c-9.8904-1.7862-18.3452-5.7213-22.3865-15.9063
	c-0.5449-1.3731-1.8912-2.4388-2.9046-3.614c-7.5553-8.7605-16.3702-16.4339-22.4598-26.4689
	c-1.8911-3.1163-5.248-4.6754-8.5961-5.9181c-1.948-0.7232-3.4288-1.8306-4.4747-3.6442
	c-8.4272-14.6124-15.4568-29.8408-20.3345-46.0176c-0.4058-1.3461-0.5899-2.7613-0.843-4.1505
	c-0.4877-2.6771,0.3748-3.587,3.179-2.7961c20.8528,5.8815,42.3715,6.7281,63.79,8.3505
	c13.2484,1.0035,26.5238,1.8849,39.4902,5.0643c2.7344,0.6705,5.4292,1.5818,8.0533,2.6092
	c10.0322,3.9279,15.1782,11.2375,15.3456,22.1133c0.1152,7.4802-0.6566,14.9855,0.6851,22.44
	c1.7944,9.9705,6.9641,17.8447,14.9745,23.8104c6.0829,4.5303,12.0509,4.0576,17.721-1.0203
	c4.8313-4.3268,7.9856-9.8488,10.8123-15.5819c5.3946-10.9414,8.9611-22.561,12.6659-34.1302
	c1.3358-4.1716,2.6825-8.3408,5.0845-12.0709c4.5148-7.011,10.3898-9.0668,18.2541-6.2983
	c3.2208,1.1338,6.1354,2.8755,8.9706,4.7519C393.6912,778.1735,401.6683,786.5615,412.116,792.004z"/>
<linearGradient id="SVGID_5_" gradientUnits="userSpaceOnUse" x1="346.597" y1="533.9649" x2="568.9418" y2="533.9649">
	<stop  offset="0" style="stop-color:#00A8DE"/>
	<stop  offset="0.2" style="stop-color:#333391"/>
	<stop  offset="0.4" style="stop-color:#E91388"/>
	<stop  offset="0.6" style="stop-color:#EB2D2E"/>
	<stop  offset="0.8" style="stop-color:#FDE92B"/>
	<stop  offset="1" style="stop-color:#009E54"/>
</linearGradient>
<path fill="url(#SVGID_5_)" d="M568.5855,452.919c-1.0925,0-2.1855-0.021-3.2775,0.0032
	c-11.9324,0.2634-18.5387,6.2909-19.9985,18.1621c-1.2399,10.0823,0.3639,20.0311,1.31,30.0132
	c1.2685,13.3859,2.5145,26.775-0.4336,40.1126c-3.2109,14.5265-11.1031,26.1822-22.3859,35.5709
	c-7.2637,6.0442-16.2084,7.6726-25.3235,8.5289c-8.0154,0.7529-16.0846,0.858-24.0339,2.4071
	c-13.22,2.5761-21.6183,10.0205-25.2071,23.2158c-3.3572,12.3438-4.3115,25.0474-6.5136,37.5593
	c-0.2316,1.316,0.2155,3.1648-1.4456,3.6647c-1.4134,0.4255-2.0688-1.2306-2.9676-2.0391c-6.4708-5.8212-8.854-6.051-15.8389-0.9996
	c-1.5655,1.1321-2.1436,1.306-2.881-0.7367c-2.2937-6.3549-7.3793-8.8098-13.6775-8.5662
	c-5.8899,0.2276-10.2655-1.0198-12.8425-7.0737c-2.1368-5.02-7.4296-5.1554-12.062-5.5563
	c-3.0699-0.2657-4.1726-0.6009-2.5612-4.1014c3.6206-7.8644,1.0142-13.0057-7.2706-15.5571
	c-1.0641-0.3277-2.1442-0.6036-3.7685-1.0579c2.5642-2.7413,5.3972-4.4392,8.129-6.2319
	c9.7585-6.4042,20.5899-10.6114,31.3464-14.8822c22.3452-8.8721,36.1991-25.3591,43.7055-47.7302
	c0.4931-1.4695,0.9429-2.9698,1.2274-4.4905c1.7006-9.0933-1.1266-13.5874-10.0645-16.0101
	c-6.4396-1.7455-13.1354-1.9129-19.6646-3.1166c-9.399-1.7328-17.7165-4.967-21.6747-14.7767
	c-0.6021-1.4921-2.1088-2.6236-3.2139-3.9074c-6.5341-7.5907-14.1945-14.2109-19.4189-22.9388
	c-1.6431-2.7451-4.5446-4.1828-7.5018-5.2953c-1.7599-0.6622-3.2714-1.5387-4.2534-3.265
	c-7.7757-13.668-14.6483-27.7369-18.6906-43.0104c-1.4606-5.519-1.074-5.7893,4.211-4.4084
	c17.0688,4.4601,34.5827,5.4458,52.0615,6.7333c13.3884,0.9862,26.8183,1.7005,39.9059,5.0339
	c2.4514,0.6244,4.8502,1.5175,7.2004,2.4668c8.6986,3.5136,12.8987,10.086,13.1323,19.394
	c0.177,7.0535-0.6397,14.1387,0.7672,21.1565c1.7228,8.5933,6.2954,15.3784,13.2023,20.5688
	c5.4374,4.0861,10.6978,3.7717,15.8088-0.7096c4.5566-3.9951,7.461-9.1882,10.0788-14.5425
	c5.0455-10.3199,8.273-21.3135,11.8232-32.1853c0.923-2.8266,1.9331-5.6082,3.4493-8.1819
	c4.3163-7.3271,10.17-9.3695,17.9704-6.0869c2.3306,0.9807,4.5823,2.228,6.7067,3.6052c8.734,5.6621,16.004,13.3143,25.292,18.2355
	C568.8229,452.235,568.7042,452.577,568.5855,452.919z"/>
<linearGradient id="SVGID_6_" gradientUnits="userSpaceOnUse" x1="1314.3333" y1="533.9537" x2="1536.2229" y2="533.9537">
	<stop  offset="0" style="stop-color:#009E54"/>
	<stop  offset="0.2" style="stop-color:#FDE92B"/>
	<stop  offset="0.4" style="stop-color:#EB2D2E"/>
	<stop  offset="0.6" style="stop-color:#E91388"/>
	<stop  offset="0.8" style="stop-color:#333391"/>
	<stop  offset="1" style="stop-color:#00A8DE"/>
</linearGradient>
<path fill="url(#SVGID_6_)" d="M1515.4028,606.0449c-1.0999,1.2081-2.452,1.139-3.6312,1.5122
	c-8.3217,2.6323-10.7327,7.5737-7.2061,15.5869c1.2357,2.8077,1.2633,3.9173-2.1926,3.9666
	c-6.7186,0.0958-12.1227,2.4518-14.6451,9.3165c-0.7009,1.9072-2.4188,2.7189-4.3149,3.0157
	c-1.2507,0.196-2.5386,0.2701-3.8051,0.2335c-8.042-0.232-14.6224,1.8763-16.9631,10.8842
	c-0.8855-0.6314-1.4647-1.0181-2.0159-1.4413c-6.4866-4.9818-9.3627-4.8381-15.5619,0.6721
	c-1.0204,0.9069-1.8501,2.7228-3.2892,2.3316c-1.7504-0.476-1.3658-2.5939-1.5934-4.0065
	c-1.5282-9.4862-2.6255-19.0504-4.4174-28.4838c-4.528-23.84-13.4497-31.6049-37.6647-33.3774
	c-5.5005-0.4026-11.0034-0.7775-16.501-1.2182c-19.1732-1.5372-30.7655-13.4305-39.4169-29.1376
	c-5.6809-10.3139-7.2482-21.6401-7.1882-33.2173c0.0592-11.4702,1.5959-22.8412,2.6908-34.2405
	c0.5953-6.2003,0.9103-12.4116-0.2192-18.6029c-2.084-11.424-8.1068-16.5908-19.7588-16.9254
	c-1.0702-0.0307-2.1389-0.1088-3.3757-0.5944c11.1046-6.5062,19.4497-16.7179,31.2091-22.0788
	c8.1802-3.7292,14.5098-1.4312,18.8562,6.5235c2.8005,5.1258,4.0964,10.8195,5.9166,16.3095
	c3.1143,9.393,6.2854,18.7575,11.1019,27.4583c2.0624,3.7257,4.3821,7.2773,7.5631,10.1624
	c5.3629,4.8643,10.7731,5.2719,16.4747,0.8842c7.6113-5.8575,12.2549-13.5284,13.3914-23.209
	c0.6636-5.6511,0.1141-11.3069,0.2998-16.9541c0.4036-12.2655,4.9568-18.3043,16.5968-22.1841
	c7.5596-2.5197,15.4213-3.4851,23.293-4.368c18.4073-2.0646,36.9951-2.1993,55.3214-5.0737
	c5.9946-0.9402,12.0063-2.0336,17.8357-3.6762c4.0625-1.1448,4.4523,0.3492,3.746,3.5511c-0.4253,1.9282-0.8497,3.869-1.4681,5.7402
	c-4.2269,12.7878-9.8868,24.9384-16.4075,36.705c-1.3439,2.425-3.0232,4.29-5.8035,5.2113
	c-2.8472,0.9435-5.5205,2.5156-7.0886,5.1479c-5.2056,8.739-12.8701,15.361-19.439,22.9226
	c-1.6711,1.9235-3.2137,3.8465-4.3558,6.1897c-3.3168,6.8047-9.4117,10.0414-16.4244,11.4954
	c-6.7704,1.4038-13.6599,2.23-20.4912,3.3461c-1.3901,0.2272-2.7749,0.5449-4.1266,0.9415
	c-7.9008,2.3182-11.1757,7.0455-9.1553,14.999c5.0533,19.894,15.1415,36.426,33.3109,47.1428
	c8.192,4.832,17.161,7.9638,25.825,11.7626C1499.2556,595.1882,1507.8645,599.6578,1515.4028,606.0449z"/>
<linearGradient id="SVGID_7_" gradientUnits="userSpaceOnUse" x1="611.4598" y1="260.5146" x2="809.4405" y2="260.5146">
	<stop  offset="0" style="stop-color:#310908"/>
	<stop  offset="0.0782" style="stop-color:#671E11"/>
	<stop  offset="0.1514" style="stop-color:#C95A10"/>
	<stop  offset="0.2113" style="stop-color:#FDC339"/>
	<stop  offset="0.2662" style="stop-color:#A0796A"/>
	<stop  offset="0.3378" style="stop-color:#C1AA94"/>
	<stop  offset="0.4193" style="stop-color:#496589"/>
	<stop  offset="0.5008" style="stop-color:#4A5877"/>
	<stop  offset="0.5724" style="stop-color:#5F99C9"/>
	<stop  offset="0.604" style="stop-color:#55BCE8"/>
	<stop  offset="0.6789" style="stop-color:#6199C7"/>
	<stop  offset="0.7454" style="stop-color:#FAD88A"/>
	<stop  offset="0.8087" style="stop-color:#FEC63A"/>
	<stop  offset="0.8569" style="stop-color:#E78822"/>
	<stop  offset="0.9334" style="stop-color:#953A11"/>
	<stop  offset="1" style="stop-color:#3F0D05"/>
</linearGradient>
<path fill="url(#SVGID_7_)" d="M809.4405,187.752c-2.0114,1.4257-3.6165,0.884-5.1041,0.9693
	c-8.4827,0.4868-13.6008,4.6448-15.5638,12.9783c-1.7149,7.28-0.9532,14.6271-0.2583,21.9495
	c1.3608,14.3396,3.5927,28.6609,0.4942,43.0557c-2.7581,12.8141-9.6281,23.1182-19.4191,31.5551
	c-6.0259,5.1926-13.4383,6.9518-21.1393,7.8328c-7.7186,0.883-15.5157,0.846-23.1911,2.3207
	c-11.6844,2.2449-19.2015,8.715-22.4194,20.3632c-2.8762,10.412-3.8479,21.1108-5.5322,31.7055
	c-0.1553,0.9763-0.3183,1.9514-0.4764,2.9273c-0.3633,2.2418-1.0063,3.0246-3.21,1.2415
	c-7.8929-6.3864-7.9445-6.3227-16.7085-0.4251c-1.9772-8.208-8.1408-9.8421-15.3324-9.6114
	c-3.7844,0.1213-6.4889-1.0597-8.0068-4.8296c-1.988-4.9378-6.4605-6.0213-11.1411-6.218c-3.1263-0.1314-4.1995-0.6129-2.649-4.0769
	c3.0558-6.8279,0.9292-10.9279-6.2422-13.2893c-1.0565-0.3478-2.1235-0.6629-3.262-1.0169c0.4424-1.9648,2.2202-2.5293,3.512-3.4688
	c8.4196-6.1233,17.9184-10.1597,27.5124-13.9809c13.0947-5.2154,24.9081-12.1265,32.8546-24.3017
	c4.3481-6.6619,8.0236-13.6452,10.1547-21.345c2.8017-10.123-0.2179-15.0402-10.5527-16.9516
	c-5.9706-1.1042-12.0496-1.6422-17.9978-2.8422c-7.2234-1.4574-13.2658-4.7473-16.3077-12.0775
	c-0.5707-1.3753-1.8329-2.4809-2.8414-3.6546c-5.8822-6.8465-12.8172-12.7915-17.5009-20.6702
	c-1.1796-1.9844-3.1417-3.4335-5.3046-4.0629c-3.4822-1.0131-5.3177-3.481-6.8943-6.4166
	c-5.0868-9.4721-9.6348-19.1858-13.1651-29.3514c-0.7863-2.264-1.4152-4.591-1.9761-6.9229
	c-0.6873-2.8575-0.5145-4.4907,3.3945-3.4007c17.9819,5.0145,36.5828,5.3165,55.0184,6.8607
	c9.5762,0.8021,19.1819,1.4958,28.4825,4.1449c12.9224,3.6807,17.0927,9.2685,17.1333,22.579
	c0.0173,5.6423-0.4925,11.3144,0.9447,16.8859c1.8033,6.9914,5.6922,12.5852,11.4578,16.8247
	c4.8444,3.5621,9.3557,3.2967,13.8774-0.6612c4.3549-3.812,7.0243-8.8173,9.4478-13.9449
	c4.2378-8.966,7.0192-18.4688,10.1202-27.8527c4.9378-14.9415,12.7158-17.536,25.8401-8.6668
	C794.8491,176.8799,801.1249,183.3145,809.4405,187.752z"/>
<linearGradient id="SVGID_8_" gradientUnits="userSpaceOnUse" x1="1074.1276" y1="260.4472" x2="1271.4912" y2="260.4472">
	<stop  offset="0" style="stop-color:#3F0D05"/>
	<stop  offset="0.0666" style="stop-color:#953A11"/>
	<stop  offset="0.1431" style="stop-color:#E78822"/>
	<stop  offset="0.1913" style="stop-color:#FEC63A"/>
	<stop  offset="0.2546" style="stop-color:#FAD88A"/>
	<stop  offset="0.3211" style="stop-color:#6199C7"/>
	<stop  offset="0.396" style="stop-color:#55BCE8"/>
	<stop  offset="0.4276" style="stop-color:#5F99C9"/>
	<stop  offset="0.4992" style="stop-color:#4A5877"/>
	<stop  offset="0.5807" style="stop-color:#496589"/>
	<stop  offset="0.6622" style="stop-color:#C1AA94"/>
	<stop  offset="0.7338" style="stop-color:#A0796A"/>
	<stop  offset="0.7887" style="stop-color:#FDC339"/>
	<stop  offset="0.8486" style="stop-color:#C95A10"/>
	<stop  offset="0.9218" style="stop-color:#671E11"/>
	<stop  offset="1" style="stop-color:#310908"/>
</linearGradient>
<path fill="url(#SVGID_8_)" d="M1253.4305,325.0426c-1.9503,0.5691-3.1833,0.88-4.3838,1.2874
	c-6.5892,2.2368-8.7303,6.451-5.9547,12.8302c1.4052,3.2293,1.1802,4.3822-2.5582,4.4082c-5.526,0.0385-9.827,2.2285-11.9619,7.7268
	c-0.944,2.4316-3.033,3.125-5.4711,3.2422c-2.6781,0.1287-5.3638,0.2934-8.019,0.6471c-3.4659,0.4617-6.2174,2.3297-7.5112,5.5296
	c-1.1842,2.9286-1.974,3.6588-4.8109,1.3662c-4.4286-3.5785-7.0466-3.0446-11.9703,1.1863
	c-1.0265,0.8818-1.7969,2.6566-3.3607,2.2224c-1.9381-0.5381-1.2578-2.6313-1.507-4.0316
	c-1.7068-9.5947-2.4005-19.3524-4.7504-28.8489c-4.114-16.6256-11.3859-23.1095-28.302-24.9388
	c-5.0582-0.547-10.1323-1.1101-15.2117-1.2705c-20.8562-0.6588-32.9661-12.9956-40.812-30.7072
	c-5.5797-12.5959-4.6361-25.9826-3.6316-39.2829c0.7021-9.2975,2.4302-18.5237,2.0272-27.8973
	c-0.5895-13.7165-5.9196-19.1272-19.4189-19.8179c-0.5073-0.026-1.0105-0.1304-1.6947-0.6599
	c10.0775-5.9941,17.6041-15.4246,28.505-20.0106c7.0146-2.9511,12.5243-0.6998,16.2062,6.3347
	c2.8993,5.5394,4.1968,11.6822,6.2222,17.5502c2.8154,8.1567,5.6663,16.2992,10.2753,23.6606
	c8.0135,12.7997,16.6216,13.1597,25.848,1.195c4.3317-5.6173,6.0177-12.0733,6.1594-19.0182
	c0.0836-4.0994-0.0212-8.2023,0.0295-12.3027c0.1003-8.1113,4.1337-13.5806,11.4558-16.7534
	c7.9027-3.4244,16.358-4.3086,24.7872-5.2459c15.5975-1.7344,31.3293-1.9652,46.8861-4.1835
	c5.8822-0.8388,11.7642-1.7603,17.4277-3.5338c3.5748-1.1196,3.9651,0.2598,3.2843,3.1398
	c-0.4542,1.9216-0.8339,3.8735-1.4631,5.739c-3.7139,11.0083-8.5646,21.5122-14.157,31.6867
	c-1.3364,2.4313-2.9645,4.3436-5.7573,5.2477c-2.5986,0.8413-4.876,2.4418-6.2686,4.8329
	c-3.4618,5.9442-8.4705,10.5719-12.9796,15.6241c-3.1881,3.572-6.4623,6.9827-8.8016,11.3074
	c-2.9713,5.493-8.5005,7.7414-14.2946,8.9407c-5.3883,1.1154-10.8813,1.7216-16.3226,2.588
	c-1.5321,0.2439-3.0684,0.5274-4.5615,0.9415c-7.4939,2.0786-10.4064,6.403-8.4047,13.9812
	c4.6012,17.4207,13.5479,31.9042,29.5233,41.2708c7.1016,4.1638,14.8396,6.9306,22.3549,10.1871
	C1238.2415,314.7492,1246.0991,318.7916,1253.4305,325.0426z"/>
</svg>
