<?xml version="1.0" encoding="utf-8"?>
<!-- Generator: Adobe Illustrator 18.0.0, SVG Export Plug-In . SVG Version: 6.00 Build 0)  -->
<!DOCTYPE svg PUBLIC "-//W3C//DTD SVG 1.1//EN" "http://www.w3.org/Graphics/SVG/1.1/DTD/svg11.dtd">
<svg version="1.1" id="Layer_1" xmlns="http://www.w3.org/2000/svg" xmlns:xlink="http://www.w3.org/1999/xlink" x="0px" y="0px"
	 viewBox="-49.6806 224 2659.6807 1152.0187" enable-background="new -49.6806 224 2659.6807 1152.0187" xml:space="preserve">
<g>
	<g>
		<linearGradient id="SVGID_1_" gradientUnits="userSpaceOnUse" x1="243.6977" y1="800.1741" x2="1870.6183" y2="800.1741">
			<stop  offset="0" style="stop-color:#BA8B01"/>
			<stop  offset="0.0438" style="stop-color:#CDAA37"/>
			<stop  offset="0.1121" style="stop-color:#E8D886"/>
			<stop  offset="0.1607" style="stop-color:#F8F4B8"/>
			<stop  offset="0.1847" style="stop-color:#FFFFCB"/>
			<stop  offset="0.2986" style="stop-color:#FFFFCB"/>
			<stop  offset="0.3078" style="stop-color:#FDF9C1"/>
			<stop  offset="0.3415" style="stop-color:#F5E6A0"/>
			<stop  offset="0.374" style="stop-color:#F0D989"/>
			<stop  offset="0.4043" style="stop-color:#EDD17B"/>
			<stop  offset="0.4303" style="stop-color:#ECCE76"/>
			<stop  offset="0.4892" style="stop-color:#A26F14"/>
			<stop  offset="0.6051" style="stop-color:#A26F14"/>
			<stop  offset="0.6074" style="stop-color:#A67418"/>
			<stop  offset="0.624" style="stop-color:#C19234"/>
			<stop  offset="0.6402" style="stop-color:#D4A848"/>
			<stop  offset="0.6558" style="stop-color:#E0B654"/>
			<stop  offset="0.6699" style="stop-color:#E4BA58"/>
			<stop  offset="0.6716" style="stop-color:#D9A94D"/>
			<stop  offset="0.6756" style="stop-color:#C38737"/>
			<stop  offset="0.6793" style="stop-color:#B36F27"/>
			<stop  offset="0.6828" style="stop-color:#A9601D"/>
			<stop  offset="0.6857" style="stop-color:#A65B1A"/>
			<stop  offset="0.6954" style="stop-color:#AA6222"/>
			<stop  offset="0.7104" style="stop-color:#B57637"/>
			<stop  offset="0.7287" style="stop-color:#C6965B"/>
			<stop  offset="0.7498" style="stop-color:#DEC38B"/>
			<stop  offset="0.7728" style="stop-color:#FDFCC9"/>
			<stop  offset="0.7741" style="stop-color:#FFFFCD"/>
			<stop  offset="0.7957" style="stop-color:#FFFFCD"/>
			<stop  offset="0.8468" style="stop-color:#E5BD5D"/>
			<stop  offset="0.8861" style="stop-color:#BB913B"/>
			<stop  offset="0.9116" style="stop-color:#BB913B"/>
			<stop  offset="0.9147" style="stop-color:#BE9337"/>
			<stop  offset="0.925" style="stop-color:#C39830"/>
			<stop  offset="0.9509" style="stop-color:#C5992E"/>
			<stop  offset="1" style="stop-color:#7F470A"/>
		</linearGradient>
		<path fill="url(#SVGID_1_)" d="M243.6977,989.1138c0-25.9064,0-51.8128,1.2953-77.7192
			c40.1549-10.3625,80.3098-31.0876,120.4646-59.5847c0,37.5643-1.2953,73.8332-1.2953,110.1021
			c12.9532,3.8859,25.9064,7.7719,37.5643,11.6578c1.2953-79.0144,2.5906-158.0289,3.886-238.3386
			c0-79.0145,0-159.3243,1.2953-238.3387c38.8596-22.0204,79.0144-42.7455,119.1693-60.88c0,117.874,0,237.0433-1.2953,356.2127
			c-1.2953,119.1693-3.886,238.3386-3.886,356.2126C427.633,1104.3972,335.6653,1053.8798,243.6977,989.1138z M413.3845,500.7786
			c3.886,5.1813,9.0672,11.6579,11.6579,16.8392c27.2017-12.9532,54.4034-25.9064,81.6051-37.5643
			c3.886-10.3625,7.7719-20.7251,11.6579-31.0876C483.3317,464.5096,448.3581,482.6441,413.3845,500.7786z M422.4517,525.3896
			c-3.886-6.4766-7.7719-11.6579-10.3625-16.8392c-1.2953,77.7191-1.2953,156.7336-1.2953,234.4528
			c-1.2953,77.7191-2.5906,156.7336-3.886,234.4527c3.886,9.0673,7.7719,16.8392,10.3625,25.9064
			c1.2953-79.0145,3.886-159.3242,3.886-238.3387C421.1564,684.7139,422.4517,604.4041,422.4517,525.3896z M505.3521,489.1207
			c-25.9064,11.6579-51.8127,23.3158-79.0144,36.269c0,82.9004,0,164.5055-1.2953,247.4059
			c0,81.6051-1.2953,164.5055-2.5906,247.4059c-27.2017-10.3625-53.1081-20.7251-80.3098-32.383
			c1.2953-27.2017,1.2953-54.4034,1.2953-81.6051c-25.9064,14.2485-53.1081,25.9064-79.0145,32.383c0,12.9532,0,27.2017,0,40.1548
			c77.7191,44.0409,156.7336,81.6051,235.748,115.2834c1.2953-101.0349,2.5906-202.0698,3.886-301.8093
			C504.0568,691.1904,505.3521,590.1556,505.3521,489.1207z M403.0219,982.6372c-12.9532-5.1813-27.2017-9.0673-41.4502-14.2485
			c-2.5906,5.1813-6.4766,10.3625-11.6579,15.5439c22.0204,9.0672,42.7455,16.8391,64.766,24.611
			C410.7939,999.4764,406.9079,991.7045,403.0219,982.6372z M251.4696,916.5759c3.886,5.1813,7.7719,10.3625,11.6579,15.5438
			c27.2017-7.7719,54.4034-19.4297,81.6051-34.9736c3.886-10.3625,7.7719-19.4298,12.9532-29.7924
			C321.4168,890.6696,286.4432,907.5087,251.4696,916.5759z M260.5368,936.0057c-3.886-5.1813-7.7719-10.3625-11.6579-15.5438
			c-1.2953,20.7251-1.2953,41.4502-1.2953,62.1753c3.886-1.2953,7.7719-2.5906,11.6579-3.886
			C259.2415,964.5027,260.5368,950.2542,260.5368,936.0057z M570.118,1171.7538c0-53.108,0-104.9209,1.2953-158.0289
			c0-51.8127,1.2953-104.9208,1.2953-156.7336c-10.3625-1.2953-20.7251-2.5906-31.0876-2.5906
			c1.2953-47.9268,1.2953-95.8536,1.2953-143.7804c10.3625,0,20.7251-1.2953,31.0876-2.5906
			c0-49.2221,1.2953-98.4442,1.2953-147.6664c0-49.2221,0-98.4442,0-147.6664c95.8536-37.5642,191.7072-68.6519,286.2655-91.9676
			c0,62.1753,0,125.6459-1.2953,187.8212c-54.4034,7.7719-110.1021,16.8392-165.8008,27.2017c0,54.4034,0,108.8068-1.2953,163.2101
			c45.3362-2.5906,89.377-3.8859,134.7132-6.4766c0,60.88-1.2953,123.0553-1.2953,183.9353
			c-45.3361-3.886-89.377-6.4766-134.7131-10.3625c0,62.1753,0,124.3506-1.2953,186.5259
			c55.6987,12.9531,111.3975,23.3157,167.0962,33.6782c-1.2953,62.1753-1.2953,124.3506-1.2953,186.526
			C760.53,1244.2916,665.9717,1210.6133,570.118,1171.7538z M583.0712,420.4688c3.886,7.7719,7.772,16.8391,11.6579,24.6111
			c82.9004-28.497,165.8008-51.8128,247.4059-71.2426c3.8859-12.9532,7.7719-25.9064,11.6578-37.5642
			C764.4159,358.2935,673.7436,386.7905,583.0712,420.4688z M691.8781,710.6202c-3.886,11.6578-7.7719,22.0204-11.6579,32.383
			c42.7455-1.2953,85.4911-2.5906,128.2366-2.5906c3.886-11.6579,7.7719-23.3158,11.6579-34.9736
			C777.3691,706.7343,734.6236,709.3249,691.8781,710.6202z M836.9537,1143.2567
			c-55.6987-11.6578-111.3974-25.9064-167.0961-41.4502c0-49.222,0-97.1489,1.2953-146.371c0-47.9268,1.2953-97.1489,1.2953-146.371
			c44.0409,1.2953,89.377,3.886,133.4178,5.1813c0-20.7251,1.2953-41.4502,1.2953-60.8799c-45.3362,0-89.377,0-134.7132,1.2953
			c0-45.3362,1.2953-89.377,1.2953-134.7131c0-45.3362,0-89.377,0-134.7132c55.6987-14.2485,111.3974-25.9064,167.0961-36.2689
			c0-20.7251,0-41.4502,0-62.1753c-81.6051,18.1345-163.2102,41.4502-244.8152,68.6519c0,49.2221,0,99.7395,0,150.257
			c-1.2953,50.5175-1.2953,101.0349-1.2953,150.257c-10.3625,1.2953-20.7251,1.2953-31.0876,1.2953c0,16.8392,0,32.383,0,49.2221
			c10.3625,0,20.7251,1.2953,31.0876,1.2953c-1.2953,53.1081-1.2953,107.5115-2.5906,160.6195
			c0,53.1081-1.2953,107.5115-1.2953,160.6196c81.605,28.4969,163.2101,54.4033,244.8152,76.4237
			C835.6584,1184.7069,835.6584,1163.9818,836.9537,1143.2567z M592.1385,454.1471c-3.8859-9.0672-7.7719-16.8391-11.6579-24.6111
			c-1.2953,46.6315-1.2953,94.5583-1.2953,141.1897c0,46.6315,0,93.263-1.2953,139.8945
			c3.886,9.0672,7.7719,18.1345,11.6579,27.2017c1.2953-46.6315,1.2953-94.5583,1.2953-141.1898
			C590.8432,548.7054,590.8432,500.7786,592.1385,454.1471z M689.2874,1064.2423c-3.886,9.0673-7.7719,18.1344-11.6579,28.4969
			c53.1081,14.2485,106.2162,27.2018,160.6196,38.8596c3.886-11.6578,7.7719-22.0204,11.6579-33.6783
			C796.7989,1087.558,742.3955,1075.9001,689.2874,1064.2423z M575.2993,718.3922c-7.7719,1.2953-15.5438,1.2953-24.611,1.2953
			c3.8859,9.0673,7.7719,18.1345,11.6578,27.2017c7.7719,0,16.8392,0,24.6111-1.2953
			C583.0712,736.5266,579.1853,727.4594,575.2993,718.3922z M559.7555,754.6611c-3.8859-9.0672-7.7719-18.1345-11.6578-27.2017
			c0,36.269-1.2953,73.8332-1.2953,110.1021c3.886-9.0672,7.7719-18.1345,11.6579-27.2017
			C558.4602,792.2253,559.7555,772.7955,559.7555,754.6611z M589.5479,825.9036c-3.886,10.3625-7.7719,19.4297-11.6579,28.497
			c-1.2953,50.5175-1.2953,99.7396-2.5906,150.257c0,49.2221,0,99.7396-1.2953,150.257c3.8859-7.772,7.7719-15.5438,11.6578-23.3158
			c1.2953-51.8127,1.2953-102.3302,2.5907-152.8477C588.2526,928.2338,589.5479,877.7164,589.5479,825.9036z M875.8134,1277.97
			c0-79.0145,0-159.3242,1.2953-238.3387c33.6783-47.9268,67.3566-97.1489,102.3302-148.9617
			c-1.2953,69.9472-1.2953,141.1898-1.2953,212.4323c33.6783,2.5907,67.3566,2.5907,101.0348,2.5907
			c1.2954-40.1549,1.2954-80.3098,1.2954-120.4647c-33.6783-54.4034-67.3566-108.8068-101.0349-164.5055
			c-33.6783-53.1081-67.3566-106.2162-101.0349-158.0289c1.2953-56.994,1.2953-115.2834,1.2953-172.2774
			c0-58.2893,1.2953-115.2834,1.2953-172.2774c107.5115-16.8391,213.7277-19.4298,321.239-9.0672
			c0,81.6051,0,161.9149-1.2953,242.2246c-33.6782,51.8127-67.3566,103.6255-102.3302,158.0289
			c1.2954-71.2425,1.2954-142.485,1.2954-212.4323c-33.6783-1.2953-67.3567-1.2953-101.0349,0c0,40.1549,0,79.0144-1.2953,117.8741
			c33.6783,54.4034,67.3566,108.8068,101.0349,163.2101c33.6783,54.4034,67.3566,107.5115,101.0349,160.6196
			c0,58.2894,0,116.5787,0,176.1634c0,58.2893,0,117.874,0,176.1633C1090.8363,1302.5809,983.3248,1298.6951,875.8134,1277.97z
			 M888.7665,328.5012c3.8859,11.6579,7.7719,23.3157,10.3625,33.6783c94.5583-10.3625,189.1165-12.9532,283.6749-5.1813
			c3.8859-11.6579,7.7719-23.3157,11.6578-34.9736C1092.1316,311.662,991.0967,314.2527,888.7665,328.5012z M1116.7427,454.1471
			c-3.886,11.6579-7.772,24.6111-11.6578,36.2689c-1.2954,60.88-1.2954,120.4647-1.2954,181.3447
			c3.886-19.4298,7.772-38.8596,11.658-58.2894C1115.4474,560.3632,1115.4474,507.2552,1116.7427,454.1471z M996.278,629.0151
			c-3.886,6.4766-7.7719,14.2485-11.6579,22.0204c32.383,53.108,64.766,106.2161,98.4442,159.3242
			c32.3831,53.1081,66.0613,104.9208,98.4442,156.7336c3.886-7.7719,7.772-15.5438,11.658-23.3157
			c-33.6783-51.8127-66.0613-103.6255-98.4442-156.7336C1061.0439,733.936,1028.661,680.8279,996.278,629.0151z M1178.918,980.0466
			c-33.6783-53.1081-67.3566-106.2161-101.0349-160.6196c-33.6782-54.4034-67.3566-108.8068-99.7395-163.2101
			c0-73.8332,0-148.9617,1.2953-222.7949c46.6315-2.5906,94.5582-3.886,142.4851-2.5906
			c-1.2953,56.994-1.2953,115.2834-1.2953,172.2774c19.4297-31.0876,40.1548-62.1753,59.5846-91.9677
			c1.2953-46.6315,1.2953-94.5583,1.2953-141.1898c-93.2629-7.7719-186.5259-5.1813-281.0842,5.1813c0,41.4502,0,82.9004,0,124.3506
			s-1.2953,82.9004-1.2953,124.3506c33.6783,51.8127,67.3566,104.9208,101.0349,158.0289
			c33.6783,54.4034,67.3566,108.8068,101.0349,163.2101c0,75.1285-1.2953,150.257-1.2953,225.3856
			c-47.9269,1.2953-95.8536-1.2954-142.4852-6.4767c0-56.994,0-112.6927,0-169.6867
			c-19.4297,29.7923-40.1548,59.5847-60.8799,88.0816c0,45.3362,0,90.6724,0,137.3038
			c93.2629,14.2485,187.8212,16.8392,282.3795,9.0673c0-41.4502,0-82.9004,0-124.3506S1178.918,1021.4968,1178.918,980.0466z
			 M1096.0176,963.2074c-3.886,6.4766-7.772,14.2485-11.658,22.0204c0,40.1548,0,80.3098,0,119.1694
			c3.886,12.9531,7.772,24.6111,11.658,36.2689C1096.0176,1081.0814,1096.0176,1021.4968,1096.0176,963.2074z M896.5385,372.542
			c-3.886-10.3625-7.7719-22.0204-11.6579-33.6783c0,51.8127,0,102.3302,0,154.1429
			c-1.2953,50.5175-1.2953,101.0349-1.2953,152.8477c3.8859-7.7719,7.7719-14.2485,11.6578-22.0204
			c0-41.4502,0-84.1957,1.2953-125.6459C896.5385,456.7377,896.5385,415.2875,896.5385,372.542z M1081.769,1119.941
			c-34.9736,0-69.9472-1.2953-104.9208-3.886c-3.8859,11.6578-7.7719,23.3158-11.6578,34.9736
			c42.7455,5.1813,85.491,6.4766,128.2365,5.1813C1090.8363,1144.5521,1086.9503,1131.5989,1081.769,1119.941z M884.8806,1044.8125
			c3.886,7.772,7.7719,15.5438,10.3625,23.3158c22.0204-29.7924,42.7455-60.88,64.7659-93.263
			c3.886-18.1345,7.772-38.8596,11.6579-58.2894C941.8746,960.6168,913.3776,1003.3623,884.8806,1044.8125z M892.6525,1078.4908
			c-3.8859-9.0673-7.7719-16.8392-11.6578-24.6111c-1.2953,67.3566-1.2953,136.0084-1.2953,203.3651
			c3.886-10.3625,7.7719-22.0205,11.6579-32.3831C892.6525,1175.6398,892.6525,1126.4176,892.6525,1078.4908z M1217.7776,1288.3325
			c0-163.2102,1.2953-326.4204,1.2953-488.3353c0-163.2102,1.2953-326.4204,2.5906-488.3352
			c40.1549,6.4766,79.0145,14.2485,119.1693,24.6111c-1.2953,124.3506-2.5906,248.7012-2.5906,373.0518
			c0,123.0553,0,248.7012,0,371.7565c23.3158-2.5906,46.6315-6.4766,69.9473-10.3625c0-119.1693,0-239.634,0-358.8033
			s1.2953-238.3387,2.5906-357.508c38.8596,11.6579,79.0145,23.3157,119.1693,36.2689
			c-1.2953,137.3038-2.5906,273.3123-2.5906,409.3208s0,272.0169,1.2953,408.0255
			C1425.0286,1240.4056,1321.4031,1266.312,1217.7776,1288.3325z M1417.2566,369.9514c3.886,11.6579,7.772,23.3157,11.658,34.9736
			c27.2017,7.7719,54.4033,15.5439,81.6051,23.3158c3.8859-9.0672,7.7719-18.1345,11.6578-27.2017
			C1487.2039,389.3811,1452.2302,379.0186,1417.2566,369.9514z M1426.3239,413.9922c-3.886-12.9532-7.7719-24.6111-10.3625-36.269
			c-1.2953,116.5787-2.5906,231.8621-2.5906,347.1454c0,116.5787,0,231.8621,0,348.4409
			c3.8859,10.3625,7.7719,20.7251,11.6578,29.7922c0-113.988-1.2953-229.2714,0-344.5547
			C1425.0286,643.2637,1425.0286,527.9803,1426.3239,413.9922z M1228.1401,327.2058c3.8859,12.9532,7.7719,25.9064,11.6578,38.8596
			c27.2017,5.1813,54.4033,9.0672,81.6051,15.5438c3.8859-11.6579,7.7719-22.0204,11.6578-33.6783
			C1298.0873,340.159,1263.1136,333.6824,1228.1401,327.2058z M1509.2242,438.6033c-27.2017-6.4766-53.108-14.2485-79.0144-20.7251
			c-1.2953,117.874-1.2953,235.748-1.2953,352.3267c0,117.874,0,235.748,0,353.6221
			c-37.5643,7.7719-73.8333,14.2484-111.3975,20.7251c0-124.3506,0-249.9966,0-375.6425s1.2953-251.2919,2.5906-375.6425
			c-27.2017-6.4766-53.108-10.3625-79.0144-15.5438c-1.2953,141.1898-2.5906,281.0842-2.5906,422.274
			c0,139.8944,0,279.7889,0,420.9786c89.377-16.8391,180.0493-37.5642,269.4263-60.8799c0-120.4647-1.2953-240.9294-1.2953-360.0987
			C1506.6337,679.5326,1507.929,559.0679,1509.2242,438.6033z M1409.4847,1082.3767c-24.6111,3.886-47.9268,7.772-72.5378,11.658
			c-3.886,12.9531-7.772,24.6111-11.658,36.2689c32.3831-5.1813,63.4707-11.6578,95.8536-16.8391
			C1417.2566,1103.1018,1413.3707,1092.7393,1409.4847,1082.3767z M1237.2073,373.8373
			c-3.8859-12.9532-7.7719-24.6111-11.6578-37.5642c-1.2953,154.1429-2.5906,309.5812-2.5906,463.7242
			c0,155.4382,0,309.5812,0,465.0195c3.8859-12.9531,7.7719-25.9064,11.6578-38.8596c0-141.1897,0-283.6748,0-426.1599
			C1234.6167,658.8075,1235.912,516.3224,1237.2073,373.8373z M1546.7886,1201.5461c0-66.0613,0-133.4178,0-199.4791
			c33.6782-47.9268,67.3566-93.263,101.0348-136.0085c0,51.8127,0,103.6255,0,154.1429
			c34.9736-7.7719,68.652-16.8392,102.3302-27.2017c0-25.9064,0-50.5175-1.2953-76.4238
			c-33.6783-29.7923-68.6519-63.4706-101.0349-101.0349c-34.9735-38.8596-68.6519-82.9004-102.3302-128.2366
			c0-47.9268,1.2954-95.8536,1.2954-143.7804c0-47.9268,1.2953-97.1489,1.2953-145.0757
			c107.5115,41.4502,215.0229,90.6723,322.5344,164.5055c0,38.8596-1.2953,77.7192-1.2953,116.5787
			c-34.9736,14.2485-68.652,36.2689-102.3302,64.7659c0-44.0408,0-86.7864,1.2953-130.8272
			c-34.9736-10.3625-68.652-19.4298-102.3302-28.497c0,27.2017,0,55.6987,0,82.9004
			c32.3829,42.7455,66.0613,84.1957,101.0349,119.1694c32.3829,32.3829,67.3566,59.5847,102.3302,79.0145
			c0,28.497,0,56.994,1.2953,85.491c0,28.497,0,56.994,0,84.1957C1763.1068,1110.8738,1655.5953,1160.0959,1546.7886,1201.5461z
			 M1555.8557,412.6969c3.886,10.3626,7.772,22.0204,11.658,33.6783c94.5582,32.383,189.1166,71.2426,283.6748,123.0553
			c3.886-2.5906,7.772-5.1813,11.6578-7.7719C1760.5161,495.5973,1658.1859,450.2611,1555.8557,412.6969z M1783.8319,594.0415
			c-3.886,5.1813-7.772,11.6579-11.6578,16.8392c0,37.5643-1.2954,73.8332-1.2954,111.3974
			c3.886-11.6578,7.772-23.3157,11.658-33.6783C1782.5366,657.5121,1783.8319,625.1292,1783.8319,594.0415z M1663.3672,678.2372
			c-3.8859,3.886-7.7719,9.0673-11.6578,14.2485c32.3829,41.4502,64.766,80.3098,99.7396,113.988
			c32.3829,32.383,66.0612,58.2894,99.7395,80.3098c3.886-5.1813,6.4766-10.3625,10.3625-15.5438
			c-32.3829-20.7252-67.3566-46.6315-99.7395-79.0145C1728.1332,758.5471,1695.7502,718.3922,1663.3672,678.2372z
			 M1848.5979,893.2602c-34.9736-22.0204-68.652-47.9268-102.3302-81.6051c-34.9736-34.9736-67.3567-73.8331-101.0349-116.5787
			c0-54.4034,0-108.8068,1.2953-163.2102c46.6315,14.2485,94.5583,31.0876,142.4851,49.2221
			c-1.2953,33.6783-1.2953,67.3566-1.2953,102.3302c19.4297-14.2485,40.1548-25.9064,60.88-33.6783
			c0-24.611,0-49.2221,1.2953-73.8332c-94.5583-50.5174-187.8213-86.7863-281.0842-119.1693
			c-1.2953,33.6783-1.2953,67.3566-1.2953,101.0349s0,67.3566-1.2954,99.7396c33.6783,46.6315,67.3567,90.6724,101.0349,129.5319
			c33.6783,38.8596,68.652,71.2426,102.3302,101.0349c1.2953,46.6315,1.2953,91.9677,1.2953,138.5992
			c-47.9268,16.8391-95.8535,32.3829-142.485,46.6315c0-42.7456-1.2954-85.4911-1.2954-128.2366
			c-19.4297,28.497-40.1549,56.9941-59.5846,85.491c0,37.5643,0,73.8333,0,111.3975
			c94.5582-31.0876,187.8212-68.6519,282.3795-117.874c0-22.0204,0-44.0408-1.2953-66.0613
			C1848.5979,937.301,1848.5979,915.2806,1848.5979,893.2602z M1765.6974,899.7368c-3.8859,5.1813-7.7719,10.3625-11.6578,16.8391
			c0,24.6111,0,49.2221,0,75.1285c3.886,5.1813,7.772,11.6578,11.6578,18.1345
			C1765.6974,973.5699,1765.6974,936.0057,1765.6974,899.7368z M1563.6277,452.8518c-3.886-11.6579-7.772-22.0204-11.6578-33.6783
			c0,42.7455,0,85.491,0,126.9413c-1.2954,42.7455-1.2954,85.491-1.2954,128.2366c3.886-6.4766,7.772-11.6579,11.658-16.8392
			c0-33.6783,0-68.6519,1.2953-102.3302C1563.6277,521.5037,1563.6277,486.5301,1563.6277,452.8518z M1752.7443,1000.7717
			c-34.9736,10.3625-69.9473,20.7251-104.9209,29.7923c-3.8859,10.3625-7.7719,20.7251-11.6578,31.0876
			c42.7455-12.9531,85.4911-25.9064,128.2366-41.4501C1760.5161,1013.7249,1756.6302,1007.2483,1752.7443,1000.7717z
			 M1554.5604,1003.3623c3.886,6.4766,7.772,11.6579,11.6578,16.8392c20.7251-29.7924,41.4503-59.5847,62.1754-88.0817
			c3.8859-15.5438,7.7719-31.0876,11.6578-45.3361C1611.5544,924.3478,1583.0575,963.2074,1554.5604,1003.3623z
			 M1563.6277,1029.2687c-5.1813-6.4766-9.0673-11.6578-12.9532-16.8391c0,56.994,0,112.6927,1.2954,169.6868
			c2.5906-11.6578,7.7719-23.3158,11.6578-33.6783C1563.6277,1108.2832,1562.3324,1068.1283,1563.6277,1029.2687z"/>
		<linearGradient id="SVGID_2_" gradientUnits="userSpaceOnUse" x1="243.6978" y1="800.1741" x2="1870.6184" y2="800.1741">
			<stop  offset="0" style="stop-color:#E4BA5E"/>
			<stop  offset="0.0302" style="stop-color:#E0B55A"/>
			<stop  offset="0.0663" style="stop-color:#D6A64C"/>
			<stop  offset="0.1055" style="stop-color:#C58E37"/>
			<stop  offset="0.1466" style="stop-color:#AD6D19"/>
			<stop  offset="0.1731" style="stop-color:#9B5302"/>
			<stop  offset="0.1881" style="stop-color:#9B5302"/>
			<stop  offset="0.2209" style="stop-color:#B37624"/>
			<stop  offset="0.2613" style="stop-color:#CC9B47"/>
			<stop  offset="0.2989" style="stop-color:#DEB660"/>
			<stop  offset="0.3324" style="stop-color:#E9C670"/>
			<stop  offset="0.3582" style="stop-color:#EDCC75"/>
			<stop  offset="0.3806" style="stop-color:#D7A036"/>
			<stop  offset="0.394" style="stop-color:#D7A036"/>
			<stop  offset="0.4224" style="stop-color:#FDF6DC"/>
			<stop  offset="0.5239" style="stop-color:#F6E284"/>
			<stop  offset="0.5866" style="stop-color:#F5C764"/>
			<stop  offset="0.6037" style="stop-color:#EFC15F"/>
			<stop  offset="0.6272" style="stop-color:#DFAF52"/>
			<stop  offset="0.6542" style="stop-color:#C5933B"/>
			<stop  offset="0.6716" style="stop-color:#B17C2A"/>
			<stop  offset="0.6791" style="stop-color:#C19540"/>
			<stop  offset="0.69" style="stop-color:#D4B35B"/>
			<stop  offset="0.7015" style="stop-color:#E3CA70"/>
			<stop  offset="0.7138" style="stop-color:#EEDB7F"/>
			<stop  offset="0.7274" style="stop-color:#F4E587"/>
			<stop  offset="0.7448" style="stop-color:#F6E88A"/>
			<stop  offset="0.8254" style="stop-color:#F5F1AC"/>
			<stop  offset="0.8582" style="stop-color:#F6F4D6"/>
			<stop  offset="0.8791" style="stop-color:#F3F4FF"/>
			<stop  offset="0.906" style="stop-color:#D59712"/>
			<stop  offset="0.9522" style="stop-color:#FCEEA5"/>
			<stop  offset="1" style="stop-color:#F9CA5D"/>
		</linearGradient>
		<path fill="url(#SVGID_2_)" d="M1076.1438,306.9343c40.108,0,81.1647,1.9425,122.0897,5.7749c0,1.8922,0,3.7891,0,5.6768
			l-3.3689-0.3411c-41.434-4.1958-83.5864-6.3234-125.2866-6.3234c-59.2598,0-120.2792,4.3125-181.3632,12.8177l-3.2264,0.4493
			c0.002-1.1404,0.0035-2.2838,0.0046-3.4227C948.1204,311.856,1012.4093,306.9343,1076.1438,306.9343 M1225.6259,316.3596
			c39.6466,6.5138,76.0986,14.058,111.1747,23.0083c-0.0184,1.7623-0.0367,3.5201-0.0551,5.2842l-2.8169-0.626
			c-35.0419-7.7871-70.6354-14.3785-105.0602-20.7535l-3.222-0.5967l-0.0692-0.2305
			C1225.5934,320.4116,1225.6096,318.3917,1225.6259,316.3596 M1198.2333,323.3588c-0.0039,77.5996-0.0732,151.4474-1.276,226.7224
			c-30.5179,46.9507-61.9906,95.3734-94.1107,145.2625c0.1229-7.7499,0.2314-15.4938,0.3274-23.2477l4.5377,0.4493l11.658-58.2896
			l0.0778-0.3884v-0.396c0-0.309,0-0.6161,0-0.9252l4.5732-7.3173c14.4344-23.0952,29.6732-46.3251,44.4103-68.79
			c4.9939-7.6127,10.1578-15.4846,15.1327-23.1127l0.6167-0.9454l0.0314-1.1285c1.2969-46.6869,1.2969-94.7856,1.2969-141.3008
			v-3.6807l-3.6678-0.3057c-36.0887-3.0073-73.3585-4.5322-110.774-4.5327c-55.3149-0.0004-111.1868,3.1705-170.7877,9.6921
			c-0.5938-1.5834-1.1893-3.2028-1.786-4.8513l1.0719-0.1174c58.59-6.4209,116.2388-9.6765,171.3444-9.6765
			c37.6571,0,75.1937,1.5159,111.5671,4.5055l3.1295,0.2572l0.9929-2.9789l5.8287-17.4867L1198.2333,323.3588 M857.5648,325.8424
			c-0.0001,1.7898-0.0001,3.5887-0.0002,5.3817l-4.7285,1.1649c-86.9454,21.4215-178.176,49.7939-271.1575,84.3298l-2.3792,0.8838
			v-2.1755C674.1539,378.3689,767.7303,348.244,857.5648,325.8424 M857.5638,337.6097c-0.0095,55.328-0.1124,112.0515-1.224,167.463
			c-54.9232,7.8926-109.6121,16.8882-162.6027,26.7469l-3.2683,0.6082v3.3243c0,53.4694,0,108.759-1.2944,163.115l-0.1031,4.3361
			l4.3302-0.2473c22.6411-1.2938,45.3454-2.281,67.3023-3.2356c20.6176-0.8965,41.8941-1.8215,63.1806-3.0029
			c-0.0015,1.5336-0.0038,3.0685-0.0068,4.6058l-3.8842,0.1177c-21.4045,0.6486-43.1523,1.6371-64.184,2.5931
			c-20.9983,0.9544-42.7116,1.9413-64.0527,2.5881l-2.7906,0.0846l-0.8829,2.6487c-3.8599,11.5799-7.795,22.0742-11.6008,32.2233
			c0.0922-18.2739,0.3561-36.4897,0.6131-54.2164c0.3185-21.9844,0.6481-44.7173,0.6481-67.4144V488.3428
			c49.0672-12.4688,102.6997-24.0718,163.8277-35.4446l3.2683-0.608v-3.3245v-62.1752v-4.9865l-4.8677,1.0817
			c-78.4078,17.424-158.4324,39.854-244.6376,68.5703c-0.2987-0.689-0.5974-1.3705-0.8964-2.0463l1.5917-0.5472
			c77.3523-26.59,160.4659-50.5228,247.0319-71.1342l2.2487-0.5547l0.6623-2.208
			C849.775,362.2915,853.7068,349.1862,857.5638,337.6097 M1336.6931,349.6829c-1.2284,118.0872-2.451,239.8252-2.451,359.642
			v371.7564v4.469l4.4418-0.4933c23.4272-2.6031,47.1864-6.5629,70.1633-10.3925l0.7148-0.1193l0.0632,0.1686
			c0.4225,1.1265,0.8467,2.2578,1.2721,3.3904l-2.0363,0.3215c-12.321,1.9453-24.5144,3.9226-36.3063,5.8347
			c-11.7704,1.9087-23.9417,3.8826-36.2318,5.8231l-2.4846,0.3923l-0.7227,2.4093c-3.8611,12.8691-7.7944,24.6718-11.5986,36.0848
			V768.9097c0-126.9408,1.3169-253.3518,2.5905-375.6008l0.0333-3.1931l-3.1067-0.7397
			c-17.6525-4.203-34.9028-7.3472-51.5853-10.3876c-9.0515-1.6498-18.4113-3.3556-27.5713-5.1875l-0.6686-0.1337l0.0038-0.3992
			l-0.1742-0.5802c-0.2467-0.8224-0.4939-1.6412-0.7413-2.4562c8.6926,1.6433,17.4926,3.1797,26.0146,4.6676
			c17.7719,3.1031,36.1488,6.3116,54.1648,10.6012l3.563,0.8484l1.1583-3.4749c1.9323-5.7969,3.9021-11.3785,5.8073-16.7764
			C1332.8678,360.8199,1334.7921,355.3679,1336.6931,349.6829 M1416.1639,360.1956c6.7705,2.0245,13.5785,4.0514,20.4159,6.087
			c29.2001,8.6936,59.3657,17.6747,89.3419,27.2998l-0.0079,0.8413c-0.0115,1.2107-0.0228,2.4215-0.0343,3.6329l-2.437-0.8124
			c-34.8956-11.6318-70.2842-22.1173-105.1823-31.165l-0.837-0.2169L1416.1639,360.1956 M1525.8362,402.6564
			c-1.2314,130.5731-2.4774,265.3358-2.4774,397.3408c0,132.7701,0,270.0199,1.2673,405.0918
			c-93.5605,29.1317-192.7102,54.7677-302.8481,78.3011c0-0.1748,0-0.3417,0.0001-0.5165l5.012-16.7075l11.658-38.8596
			l0.1687-0.5623v-0.587v-1.1323l0.6267-0.1182c86.2112-16.2427,176.9497-36.746,269.6952-60.9404l2.9904-0.7799v-3.0905
			c0-60.406-0.3306-121.7346-0.6504-181.0438c-0.317-58.8198-0.645-119.6421-0.645-179.055
			c0-120.424,1.3165-242.8746,2.5898-361.2936l0.0006-0.0575l0.0344-3.1941l-3.1078-0.74
			c-15.1666-3.6111-30.1152-7.6771-44.5717-11.6094c-11.286-3.0701-22.9561-6.2444-34.3989-9.1051l-0.8536-0.2134l0.004-0.3568
			l-0.1754-0.5846c-0.3761-1.2535-0.7521-2.4949-1.127-3.7255l39.5901,11.3115l40.8025,11.658l3.3877,0.9679l1.3879-3.2383
			L1525.8362,402.6564 M1552.0775,404.2813c36.6746,14.2207,78.0111,31.1018,122.2036,51.7928
			c-36.6814-16.2657-75.4969-31.8795-117.0471-47.1321l-5.0797-1.8647l-0.0833-0.2499
			C1552.0735,405.9789,1552.0757,405.1283,1552.0775,404.2813 M1083.4474,434.3232c11.6351,0,23.1837,0.1361,34.3892,0.4052
			c-0.0269,1.241-0.0531,2.4829-0.0789,3.7252l-4.8097,14.4286c-1.9536,5.8604-3.9344,12.1333-5.8501,18.1996
			c-1.9054,6.0333-3.8754,12.2721-5.8079,18.0693l-0.1914,0.5743l-0.0129,0.6055c-0.0184,0.8665-0.0367,1.7366-0.0547,2.6021
			l-0.9736-0.0375c-16.8134-0.6466-33.8615-0.9746-50.6713-0.9746s-33.858,0.328-50.6713,0.9746l-3.8463,0.1479v3.8491
			c0,40.5999,0,78.948-1.2929,117.7407l-0.0404,1.2096l0.6371,1.0292l101.0348,163.2102
			c33.495,54.1071,67.5183,107.7671,100.436,159.6756v0.49c-30.9513-47.6492-62.8558-98.4603-97.5056-155.2863l-0.0183-0.03
			l-0.0188-0.0296c-20.7874-32.78-41.33-65.9625-61.1964-98.0527c-12.2148-19.7302-24.8455-40.1323-37.234-59.9542l-3.4619-5.5387
			l-3.3602,5.6008c-3.5883,5.9807-7.1943,13.079-10.7043,20.0879c0.0021-69.1242,0.0521-140.2907,1.2303-209.8327
			C1019.3687,435.2689,1052.1344,434.3232,1083.4474,434.3232 M522.0771,442.2252c0,0.2279-0.0001,0.459-0.0001,0.6869
			l-5.3964,2.3984c-13.6151,6.0511-27.3073,12.5338-40.982,19.2467C491.3769,456.6458,506.8608,449.1893,522.0771,442.2252
			 M522.077,450.2998c-0.0021,112.0713-0.0528,227.5995-1.2949,341.882c-0.4337,39.9069-1.0223,80.4606-1.5912,119.679
			c-1.098,75.6656-2.2324,153.8402-2.2925,230.257c-102.0804-48.5234-187.8217-97.9221-269.2006-155.0808
			c0-0.0731,0-0.1483,0-0.2214l1.1506-0.3835l11.6581-3.886l1.5737-0.5247l0.3704,0.2099
			c71.0473,40.2604,148.2932,78.0352,236.1519,115.4833l5.4915,2.3407l0.0765-5.9692
			c1.2952-101.0348,2.5906-202.0694,3.8858-301.8088l0.0004-0.0258v-0.026c0-50.5046,0.3292-101.8611,0.6477-151.5267
			c0.3183-49.6782,0.6477-101.0478,0.6477-151.5779l-0.0119-5.8695l0.4527-0.1941l0.5996-1.5991l11.6581-31.0879L522.077,450.2998
			 M1567.0392,450.4408c58.8195,20.1678,113.5472,41.5505,165.0928,64.5408c-57.969-24.974-112.7833-44.9297-162.0109-62.0227
			l-2.5345-0.88l-0.1641-0.4921C1567.2948,451.2036,1567.1671,450.8218,1567.0392,450.4408 M1650.4055,537.2418
			c41.087,12.6904,85.1777,27.9575,134.5029,46.5715c-0.027,0.7433-0.0535,1.4889-0.0792,2.2319l-4.1973,5.5963
			c-2.0099,2.6798-4.017,5.6904-5.958,8.6019c-1.88,2.8198-3.8239,5.7358-5.7,8.2372l-0.6273,0.8364
			c-34.6451-10.2464-68.5463-19.3737-101.3488-28.2054l-5.0399-1.3569v5.2194v82.9005v1.3442l0.8116,1.0712
			c4.1914,5.5327,8.3057,10.9106,12.3497,16.1422c-2.8876-3.5747-5.7678-7.1461-8.6381-10.7053l-2.795-3.4661l-3.1477,3.1479
			c-3.8357,3.8359-7.627,8.8124-11.3058,13.7126C1649.2345,639.2408,1649.2776,587.8793,1650.4055,537.2418 M1865.7963,564.4995
			c0.2733,0.1865,0.5476,0.3741,0.8208,0.561c-0.0225,18.717-0.3391,37.7188-0.6458,56.116
			c-0.3042,18.2446-0.6182,37.0833-0.6464,55.6794c-30.9459,12.9486-61.8967,32.2704-94.3319,58.9003
			c0.0001-0.3893,0.0001-0.7843,0.0002-1.1733l3.682-11.0455c3.8087-11.4263,7.7472-23.2415,11.6068-33.5331l0.2546-0.6791v-0.0802
			l3.5466-2.6009c19.7936-14.5152,39.9531-25.6712,59.9192-33.1583l2.5953-0.9733v-2.7721c0-24.1473,0-49.1169,1.2897-73.6229
			l0.1337-2.5397l-1.0228-0.5465l0.4087-0.2725l4.9965-3.3308l6.6615-4.4409L1865.7963,564.4995 M897.3704,628.469
			c33.1512,51.0422,66.83,104.1509,99.3925,155.4992l73.163,118.1865l27.2728,44.056c-0.0005,2.4186-0.0022,4.8392-0.0052,7.2624
			l-4.606,7.6764c-3.463,5.7718-6.9417,12.5831-10.3352,19.3519c-32.6053-52.6703-66.2718-107.0753-99.3906-161.8485l-0.0477-0.0769
			l-0.0227-0.036c-32.8918-51.8679-66.8952-105.4885-100.3605-156.9908c0.0347-1.5464,0.0684-3.0955,0.1011-4.644l4.631-9.2618
			c1.911-3.8221,3.8691-7.4121,5.7629-10.8838C894.3819,634.0898,895.8754,631.3518,897.3704,628.469 M982.1436,654.6575
			c31.5528,51.746,64.1628,105.2062,97.5232,157.8136c20.1038,32.9693,40.9807,65.873,61.1698,97.6923
			c12.2885,19.3672,24.9951,39.3942,37.2799,59.05l3.7803,6.0481l3.1896-6.3792l5.829-11.6581l4.7279-9.4556v166.991v172.5634
			c-38.8782,4.0422-77.9138,6.0908-116.0886,6.0908c-66.9056,0-134.0921-6.3087-199.7412-18.7517
			c0.0001-2.1051,0.0001-4.2209,0.0001-6.3298l3.6312-9.6829c1.9571-5.2191,3.9396-10.8362,5.8569-16.2684
			c1.9037-5.3938,3.8721-10.9711,5.801-16.1149l0.2357-0.6283l0.0175-0.6708c0.0125-0.4722,0.0247-0.9429,0.0369-1.4152
			l0.5417,0.0828c58.2804,8.9039,118.5223,13.4188,179.0525,13.4188c34.3113,0,69.3889-1.4531,104.259-4.3192l3.6722-0.3016v-3.6848
			v-124.3506V980.0466v-1.1614l-0.6218-0.9807c-33.1073-52.2077-67.3419-106.1927-101.0284-160.6092
			c-32.9081-53.1595-66.9303-108.1188-99.1241-162.1789C982.1436,654.9644,982.1436,654.8096,982.1436,654.6575 M1564.2522,661.6206
			c37.3081,51.5811,70.0266,93.4833,99.9783,128.0433c34.0139,39.2469,68.8029,71.3876,101.402,100.2596
			c0.0282,1.0422,0.0558,2.0822,0.0828,3.1226l-3.2203,4.294c-3.6593,4.8792-7.4357,9.9145-11.2008,16.05
			c-39.2677-34.7505-72.1254-67.6148-100.4412-100.4606l-0.0278-0.0325l-0.0286-0.0317
			c-35.1797-39.0887-69.4619-84.0397-101.303-126.8837c0.0002-0.6301,0.0009-1.2596,0.0016-1.8903l4.6093-7.682
			C1557.4712,670.7979,1560.7865,666.2551,1564.2522,661.6206 M823.8636,706.8416c-0.08,25.8386-0.3561,52.0689-0.6246,77.5698
			c-0.3034,28.8186-0.6166,58.574-0.6458,87.656c-21.2498-1.7866-42.4875-3.3257-63.0699-4.8171
			c-21.9573-1.5912-44.6621-3.2365-67.3038-5.1773l-4.3417-0.3721v4.3575c0,61.1142,0,124.309-1.2944,186.4428l-0.0674,3.2444
			l3.1606,0.7349c54.6544,12.7102,110.1603,23.0886,163.9335,33.0938c-0.0333,1.6567-0.0657,3.3165-0.0971,4.9744l-2.8401-0.5541
			c-57.3561-11.1913-115.9175-23.8667-160.528-33.6592l-3.2337-0.7034l-1.3032,3.0406
			c-3.8379,8.9552-7.8065,18.2153-11.7239,28.6621l-0.0262,0.0699c0.0059-46.1149,0.0898-90.1216,1.2935-135.864l0.0015-0.0525
			v-0.0527c0-23.7773,0.3259-48.3725,0.6408-72.158c0.3039-22.9475,0.6176-46.6316,0.6514-70.0901
			c20.6995,0.6448,41.945,1.5685,62.533,2.4637c21.9857,0.9559,44.72,1.9444,66.7704,2.593l4.1175,0.121v-4.1194
			c0-10.4662,0.3362-21.0535,0.6614-31.2923c0.326-10.2677,0.634-19.966,0.634-29.5877v-4h-4c-44.6002,0-86.8013,0-130.7098,1.1828
			c0.002-1.1429,0.0047-2.2866,0.0082-3.4295l3.8816-0.1177c41.9967-1.2727,85.4233-2.5887,128.1152-2.5887h2.8829l0.9119-2.735
			l4.9962-14.9888L823.8636,706.8416 M574.1478,712.0429l0.0656,0.153l0.9288,2.1673l-0.5003,0.0834
			c-7.4456,1.2408-15.0956,1.2408-23.9536,1.2408h-3.2836l-0.4833-1.1276C556.0818,714.2894,565.2418,713.1559,574.1478,712.0429
			 M590.044,749.1346l0.6852,1.599c0,0.5493,0,1.0931,0,1.642c-9.0034,0.8762-18.1799,0.8762-27.0878,0.8762h-0.1381l-0.0712-0.1663
			l-0.9413-2.1965c8.0127,0,17.074-0.0081,25.1238-1.3495L590.044,749.1346 M563.6415,810.4739
			c5.0565,0,10.261,0.3252,15.2942,0.6398c3.8187,0.2387,7.7336,0.4833,11.6634,0.5942l-4.7968,12.7914
			c-3.8519,10.2721-7.7829,19.445-11.5889,28.3259l-0.1314,0.3068l-0.8771-0.1097c-8.9814-1.1227-18.2284-2.2787-27.479-2.558
			c0.0022-0.085,0.0042-0.1664,0.0064-0.2514l4.7468-11.0756l4.8002-11.2006l6.8575-16.001l0.3235-0.7546v-0.7071H563.6415
			 M361.4402,859.5031c-0.001,0.2281-0.0021,0.4558-0.0032,0.6839l-5.9145,3.8021c-6.3192,4.0623-12.5446,7.8913-18.6867,11.4917
			C344.9374,870.5559,353.1333,865.2325,361.4402,859.5031 M1857.5659,863.8976c2.5895,1.5463,5.1768,3.0492,7.7571,4.5054
			c0,0.1664,0,0.3353,0,0.5018l-1.6157-1.0341C1861.6422,866.549,1859.5963,865.2255,1857.5659,863.8976 M361.3759,868.9177
			c-0.1186,13.1274-0.3489,26.134-0.5738,38.8399c-0.3146,17.7693-0.6398,36.1437-0.6398,54.1545v1.7077l-0.5739-0.2087
			l-1.5944,3.1885c-2.3858,4.7717-6.056,9.6517-10.9088,14.5046l-0.6734,0.6735c1.0256-25.2728,1.0255-50.8072,1.0255-75.5643
			v-6.0059l0.5335-0.3049l0.5069-1.3519c4.0346-10.7585,7.8583-19.5535,12.7856-29.4079L361.3759,868.9177 M1865.3236,872.8765
			c0.0078,25.9011,0.1041,52.5139,1.2948,78.7627v82.0193c-113.9205,79.3075-226.4248,127.7139-313.3674,161.1322l2.6237-11.8065
			c1.9196-8.6387,5.3154-17.2865,8.5996-25.6494c1.0198-2.5972,1.9829-5.05,2.8987-7.4921l0.2549-0.6792v-0.7255
			c0-0.767-0.0005-1.5349-0.0015-2.303l1.1366-0.3737c102.3729-33.6566,194.9354-72.296,282.9771-118.1259l2.1532-1.1208v-2.4272
			c0-21.6711,0-44.079-1.2953-66.1787v-64.6486v-1.6893l1.7905-2.3871c2.0449-2.7264,3.7371-5.4338,5.3733-8.0519
			c1.6189-2.5904,3.1483-5.0371,4.9894-7.4919L1865.3236,872.8765 M1643.8234,888.1557v132.0458v4.9865l4.8677-1.0815
			c33.839-7.5201,67.4126-16.4447,102.639-27.2836l1.2075-0.3715c0.0403,0.0576,0.0811,0.1158,0.1213,0.1736l-1.0511,0.3114
			c-34.3522,10.1785-69.874,20.7037-104.7883,29.7556l-2.0117,0.5217l-0.7297,1.946l-8.4784,22.609l-3.1796,8.4785l-0.0634,0.1696
			c-0.0947-17.1927-0.3564-34.4675-0.6112-51.286c-0.3184-21.0002-0.6473-42.7152-0.6473-64.0577v-9.871
			c0.1769-0.2434,0.3536-0.4865,0.5304-0.7296l0.4646-0.6586l0.1886-0.754
			C1636.0664,917.9213,1639.9791,902.2708,1643.8234,888.1557 M975.2059,904.0793c-0.0007,0.0429-0.0014,0.0862-0.0021,0.1291
			l-6.85,10.1263c-9.7325,14.3873-19.439,28.8027-28.8257,42.7435c-19.9352,29.6066-38.7648,57.5715-57.9439,85.4681l-0.5348,0.7792
			c0.0127-0.8009,0.0255-1.6,0.0385-2.4004C909.7061,1000.1844,939.8061,956.4219,975.2059,904.0793 M974.9626,920.5042
			c-0.8192,60.5787-0.8191,122.4638-0.8191,182.5976v3.7041l3.6932,0.2839c33.8317,2.6028,68.1517,2.6028,101.3416,2.6028h2.6072
			c0.6465,2.1111,1.2935,4.1915,1.941,6.2483h-1.9575c-34.7128,0-69.914-1.3037-104.6255-3.875l-3.1054-0.23l-0.9847,2.9543
			l-5.8288,17.4867l-5.8062,17.4188V994.2951v-13.4556l-7.3505,11.2706c-17.525,26.8715-37.0333,55.1592-58.0251,84.1396
			c-0.2256-0.5228-0.4516-1.0422-0.6774-1.5574l3.0944-4.1866c18.5219-25.0587,35.905-50.7004,54.3087-77.8477
			c3.4896-5.1475,7.0021-10.3287,10.5482-15.5435l0.4396-0.6465l0.1639-0.7646c2.599-12.1279,5.2371-25.6123,7.7886-38.6527
			C972.7758,931.5967,973.8735,925.9865,974.9626,920.5042 M400.6274,977.4199l2.268,0.7559l-0.0012,0.0691l0.0215,0.0502
			C402.1557,977.999,401.3925,977.7073,400.6274,977.4199 M1550.7886,1004.8507l0.3419,0.5698
			c1.3616,2.2692,2.726,4.3873,4.0864,6.3984c-0.4504-0.6-0.8972-1.1957-1.3425-1.7894l-3.0858-4.1146V1004.8507 M409.9185,1011.101
			c1.136,0.4035,2.2792,0.8083,3.4301,1.2145l2.58,0.9106l0.0627,0.2197C413.9506,1012.6609,411.9267,1011.8795,409.9185,1011.101
			 M1766.8785,1023.5573c0,0.095,0,0.1902,0,0.2852c-42.4553,14.8734-87.66,29.6827-134.4917,44.0607
			c-0.0009-0.3079-0.0016-0.618-0.0026-0.9258l4.9515-1.5005c42.0781-12.7511,85.5889-25.9363,128.4332-41.5161L1766.8785,1023.5573
			 M673.8576,1095.8688l2.7354,0.7338c55.3986,14.8632,108.0025,27.5898,160.8179,38.9076l3.5006,0.7501l1.1323-3.3964
			c1.9315-5.7944,3.9006-11.3735,5.8048-16.7692c1.822-5.1624,3.7029-10.4912,5.5633-16.0422
			c-0.9959,55.9009-1.0273,112.4335-1.0283,167.3687c-90.864-27.2-181.9836-59.4103-278.2656-98.3629
			c0-1.8137,0.0001-3.6201,0.0001-5.4274l3.4636-6.9272l3.886-7.7721l7.7719-15.5437l0.2991-0.5981
			c87.9426,30.7097,168.1096,55.735,245.0776,76.5042l5.0421,1.3607v-5.2225c0-20.3169,0-41.3254,1.2877-61.9257l0.2158-3.4554
			l-3.3887-0.7094c-49.1027-10.2772-102.7532-23.5566-163.9156-40.5728C673.8575,1097.8018,673.8576,1096.8337,673.8576,1095.8688
			 M1424.9147,1116.9117v3.6555c-35.8174,7.3542-70.7461,13.5885-103.3976,19.2349v-4.8441l4.4041-0.7046
			c16.2356-2.5979,32.3907-5.5652,48.0139-8.4346c15.5811-2.8618,31.6923-5.821,47.8394-8.4045L1424.9147,1116.9117
			 M961.4184,1154.6007l3.2908,0.3988c31.5181,3.8206,63.7196,5.6777,98.4446,5.6777c9.8966,0,20.1227-0.158,30.3944-0.4692
			l2.3634-0.0717c-0.0033,2.1411-0.0056,4.2822-0.0068,6.42c-6.8237,0.1542-13.7573,0.2322-20.6648,0.2322
			c-36.2897,0-74.5639-2.1499-113.8216-6.3925V1154.6007 M1076.1438,302.9343c-64.9558,0-129.8181,4.9717-195.1492,15.2043
			c0,56.9939-1.2954,113.9882-1.2954,172.2772c0,56.9943,0,115.2836-1.2952,172.2775
			c33.6783,51.8127,67.3564,104.9208,101.0348,158.029c33.6783,55.6987,67.3566,110.1021,101.035,164.5054
			c0,40.155,0,80.3098-1.2954,120.4648c-33.6783,0-67.3564,0-101.0348-2.5908c0-71.2426,0-142.485,1.2952-212.4323
			c-34.9735,51.8129-68.6519,101.035-102.3302,148.9616c-1.2952,79.0146-1.2952,159.3245-1.2952,238.3389
			c67.8115,13.072,135.6048,19.4438,203.7413,19.4438c39.8903,0,79.9102-2.186,120.0885-6.4907c0-58.2893,0-117.874,0-176.1635
			c0-59.5846,0-117.8739,0-176.1633c-33.6786-53.1082-67.3567-106.2162-101.035-160.6196
			c-33.6783-54.4033-67.3567-108.8066-101.0348-163.2102c1.2952-38.8593,1.2952-77.7192,1.2952-117.874
			c16.8392-0.6477,33.6783-0.9716,50.5175-0.9716c16.8391,0,33.6783,0.3239,50.5175,0.9716c0,69.9473,0,141.1898-1.2954,212.4323
			c34.9735-54.4033,68.6519-106.2161,102.3302-158.029c1.2953-80.3097,1.2953-160.6194,1.2953-242.2245
			C1160.0532,305.0057,1118.0818,302.9343,1076.1438,302.9343L1076.1438,302.9343z M899.129,362.1794
			c-2.5906-10.3624-6.4765-22.0204-10.3625-33.6783c60.5462-8.4304,120.6356-12.7797,180.8114-12.7797
			c41.5284,0,83.0999,2.0718,124.8838,6.3031c-3.8857,11.6578-7.7719,23.3158-11.6577,34.9738
			c-37.3004-3.0659-74.5944-4.519-111.8949-4.519C1013.6512,352.4792,956.3869,355.9047,899.129,362.1794L899.129,362.1794z
			 M883.5853,645.8542c0-51.8127,0-102.3302,1.2952-152.8475c0-51.8129,0-102.3302,0-154.1431
			c3.886,11.658,7.7721,23.3158,11.658,33.6783c0,42.7454,0,84.1956,0,125.646c-1.2952,41.4502-1.2952,84.1957-1.2952,125.6459
			C891.3571,631.6057,887.4713,638.0824,883.5853,645.8542L883.5853,645.8542z M1075.24,1170.7886
			c8.2163,0,16.4408-0.1079,24.6636-0.3301c0-75.1287,1.2953-150.257,1.2953-225.3855
			c-33.6783-54.4035-67.3566-108.8068-101.0349-163.2102c-33.6783-53.1081-67.3567-106.2162-101.035-158.0289
			c0-41.4502,1.2954-82.9004,1.2954-124.3506s0-82.9005,0-124.3507c57.2636-6.2754,114.0411-9.7006,170.6423-9.7001
			c36.8633,0.0002,73.6581,1.4536,110.4418,4.5189c0,46.6313,0,94.5582-1.2954,141.1897
			c-19.4298,29.7924-40.1548,60.88-59.5846,91.9677c0-56.9941,0-115.2833,1.2954-172.2775
			c-12.8446-0.3472-25.6816-0.5082-38.5015-0.5082c-35.014,0.0002-69.8497,1.2025-103.9837,3.0989
			c-1.2952,73.8331-1.2952,148.9617-1.2952,222.7948c32.3829,54.4035,66.0613,108.8068,99.7394,163.2102
			c33.6786,54.4035,67.3567,107.5114,101.035,160.6196c0,41.4502,0,82.9005,0,124.3506s0,82.9004,0,124.3506
			c-34.6686,2.8495-69.3264,4.3057-103.9313,4.3057c-59.7793,0-119.3792-4.3484-178.4483-13.3729c0-46.6315,0-91.9675,0-137.3038
			c20.7252-28.4971,41.4502-58.2893,60.88-88.0816c0,56.994,0,112.6927,0,169.6867
			C996.0493,1168.2743,1035.5675,1170.7886,1075.24,1170.7886L1075.24,1170.7886z M1116.7428,454.1472
			c-1.2954,53.1079-1.2954,106.2161-1.2954,159.3242c-3.8859,19.4297-7.772,38.8596-11.658,58.2894
			c0-60.88,0-120.4648,1.2954-181.3448C1108.9707,478.7582,1112.8567,465.8049,1116.7428,454.1472L1116.7428,454.1472z
			 M1181.5085,967.0934c-32.3829-51.8127-66.0612-103.6256-98.4441-156.7335c-33.6783-53.1082-66.0613-106.2162-98.4444-159.3244
			c3.886-7.7719,7.7721-15.5438,11.6579-22.0204c32.3832,51.8127,64.766,104.9208,98.4443,158.029
			c32.3829,53.1081,64.7659,104.9208,98.4442,156.7335C1189.2805,951.5495,1185.3947,959.3216,1181.5085,967.0934
			L1181.5085,967.0934z M971.6669,916.5759c-3.8859,19.4298-7.7719,40.155-11.658,58.2894
			c-22.0204,32.3829-42.7454,63.4706-64.7658,93.2629c-2.5906-7.7717-6.4767-15.5437-10.3627-23.3158
			C913.3776,1003.3624,941.8746,960.6168,971.6669,916.5759L971.6669,916.5759z M1096.0176,1140.6661
			c-3.8861-11.6578-7.7719-23.3158-11.6577-36.2689c0-38.8596,0-79.0144,0-119.1694c3.8859-7.7719,7.7716-15.5438,11.6577-22.0204
			C1096.0176,1021.4968,1096.0176,1081.0813,1096.0176,1140.6661L1096.0176,1140.6661z M879.6992,1257.2449
			c0-67.3567,0-136.0085,1.2954-203.3652c3.8858,7.7722,7.7719,15.5439,11.6579,24.6111c0,47.9269,0,97.1489-1.2954,146.3711
			C887.4713,1235.2245,883.5853,1246.8822,879.6992,1257.2449L879.6992,1257.2449z M1063.1538,1156.6771
			c-32.6541,0-65.3094-1.6904-97.9634-5.6484c3.8859-11.658,7.7719-23.3157,11.6577-34.9735
			c34.9738,2.5906,69.9473,3.8857,104.9209,3.8857c5.1812,11.658,9.0673,24.6111,11.6578,36.269
			C1083.3353,1156.5157,1073.2454,1156.6771,1063.1538,1156.6771L1063.1538,1156.6771z M1221.6633,311.662
			c-1.2952,161.915-2.5903,325.125-2.5903,488.3352c0,161.915-1.2954,325.125-1.2954,488.3352
			c103.6256-22.0204,207.251-47.9266,310.8765-80.3098c-1.2953-136.0083-1.2953-272.0168-1.2953-408.0254
			c0-136.0084,1.2953-272.0168,2.5907-409.3207c-40.1548-12.9532-80.3098-24.611-119.1694-36.2689
			c-1.2952,119.1694-2.5906,238.3386-2.5906,357.5079s0,239.634,0,358.8033c-23.3159,3.8861-46.6315,7.7719-69.9474,10.3624
			c0-123.0552,0-248.7012,0-371.7564c0-124.3506,1.2955-248.7012,2.5909-373.0518
			C1300.678,325.9105,1261.8184,318.1387,1221.6633,311.662L1221.6633,311.662z M1321.4032,381.6093
			c-27.2019-6.4767-54.4036-10.3624-81.6052-15.5437c-3.8861-12.9534-7.7719-25.9065-11.658-38.8599
			c34.9735,6.4767,69.9473,12.9534,104.9209,20.7252C1329.1748,359.5889,1325.2889,369.9514,1321.4032,381.6093L1321.4032,381.6093z
			 M1222.9587,1265.0168c0-155.4385,0-309.5813,0-465.0197c0-154.1429,1.2954-309.5813,2.5907-463.7241
			c3.886,12.9531,7.7721,24.611,11.6578,37.5641c-1.2954,142.4852-2.5906,284.9702-2.5906,426.16c0,142.4852,0,284.9702,0,426.16
			C1230.7307,1239.1104,1226.8446,1252.0635,1222.9587,1265.0168L1222.9587,1265.0168z M1510.5197,428.2407
			c-27.2017-7.7721-54.4033-15.5437-81.605-23.3158c-3.8861-11.6577-7.7721-23.3157-11.6582-34.9735
			c34.9738,9.0673,69.9473,19.4297,104.921,31.0876C1518.2915,410.1062,1514.4055,419.1735,1510.5197,428.2407L1510.5197,428.2407z
			 M1425.0286,1103.1018c-3.886-9.0671-7.7721-19.4298-11.6578-29.7922c0-116.5786,0-231.8622,0-348.4409
			c0-115.2833,1.2954-230.5667,2.5906-347.1454c2.5906,11.6578,6.4767,23.3158,10.3625,36.2689
			c-1.2953,113.9882-1.2953,229.2715-1.2953,344.5548C1423.7334,873.8305,1425.0286,989.1138,1425.0286,1103.1018
			L1425.0286,1103.1018z M1238.5028,1220.976c0-141.1898,0-281.0844,0-420.9788c0-141.1898,1.2952-281.0842,2.5903-422.2739
			c25.9065,5.1813,51.813,9.0673,79.0146,15.5439c-1.2954,124.3503-2.5907,249.9965-2.5907,375.6425s0,251.2919,0,375.6423
			c37.5642-6.4764,73.8331-12.9531,111.3976-20.725c0-117.874,0-235.7482,0-353.6221c0-116.5787,0-234.4527,1.2952-352.3267
			c25.9065,6.4766,51.8127,14.2487,79.0144,20.7251c-1.2953,120.4646-2.5907,240.9293-2.5907,361.3939
			c0,119.1694,1.2954,239.6339,1.2954,360.0988C1418.5519,1183.4116,1327.8796,1204.1367,1238.5028,1220.976L1238.5028,1220.976z
			 M1325.2889,1130.3037c3.8859-11.658,7.772-23.3159,11.658-36.269c24.6111-3.886,47.9266-7.772,72.538-11.658
			c3.8859,10.3625,7.7716,20.7251,11.6577,31.0878C1388.7596,1118.6458,1357.6719,1125.1222,1325.2889,1130.3037
			L1325.2889,1130.3037z M861.5648,320.7292c-94.5583,23.3157-190.4119,54.4033-286.2654,91.9678c0,49.2218,0,98.4441,0,147.6663
			c0,49.222-1.2954,98.4441-1.2954,147.6664c-10.3625,1.2952-20.725,2.5906-31.0877,2.5906c0,47.9267,0,95.8536-1.2952,143.7805
			c10.3625,0,20.725,1.2952,31.0875,2.5906c0,51.8127-1.2952,104.9208-1.2952,156.7336
			c-1.2954,53.1081-1.2954,104.9208-1.2954,158.029c95.8537,38.8595,190.412,72.5376,286.2656,101.0347
			c0-62.1752,0-124.3506,1.2952-186.5259c-55.6985-10.3625-111.3973-20.7251-167.096-33.6782
			c1.2952-62.1754,1.2952-124.3506,1.2952-186.5261c45.3363,3.886,89.3771,6.4767,134.7131,10.3627
			c0-60.88,1.2954-123.0554,1.2954-183.9354c-45.3362,2.5906-89.3771,3.886-134.7131,6.4767
			c1.2954-54.4036,1.2954-108.8069,1.2954-163.2102c55.6985-10.3625,111.3973-19.4298,165.8008-27.2017
			C861.5648,446.3751,861.5648,382.9045,861.5648,320.7292L861.5648,320.7292z M853.793,336.2731
			c-3.886,11.6578-7.7719,24.611-11.6579,37.5641c-81.605,19.4301-164.5057,42.7456-247.4059,71.2428
			c-3.886-7.772-7.772-16.8392-11.6579-24.6113C673.7436,386.7905,764.4159,358.2935,853.793,336.2731L853.793,336.2731z
			 M835.6584,1205.432c-81.605-22.0204-163.2102-47.9266-244.8152-76.4237c0-53.1082,1.2955-107.5115,1.2955-160.6196
			c1.2952-53.108,1.2952-107.5115,2.5906-160.6196c-10.3627,0-20.7252-1.2952-31.0877-1.2952c0-16.8392,0-32.3829,0-49.2221
			c10.3625,0,20.725,0,31.0877-1.2954c0-49.2221,0-99.7396,1.2952-150.2569c0-50.5175,0-101.035,0-150.2571
			c81.605-27.2017,163.2102-50.5175,244.8152-68.6519c0,20.725,0,41.4502,0,62.1752
			c-55.6985,10.3628-111.3973,22.0205-167.096,36.269c0,45.3362,0,89.3771,0,134.7133c0,45.3361-1.2954,89.3769-1.2954,134.7131
			c45.3362-1.2954,89.3771-1.2954,134.7133-1.2954c0,19.4298-1.2954,40.155-1.2954,60.88
			c-44.0408-1.2952-89.3769-3.8858-133.4179-5.1813c0,49.2221-1.2952,98.4442-1.2952,146.3711
			c-1.2954,49.222-1.2954,97.1489-1.2954,146.371c55.6987,15.5438,111.3975,29.7924,167.0963,41.4503
			C835.6584,1163.9818,835.6584,1184.707,835.6584,1205.432L835.6584,1205.432z M589.5477,737.822
			c-3.8858-9.0673-7.7719-18.1346-11.6577-27.2017c1.2952-46.6315,1.2952-93.2629,1.2952-139.8946
			c0-46.6315,0-94.5583,1.2954-141.1898c3.8859,7.7721,7.7719,15.5441,11.658,24.6113
			c-1.2955,46.6315-1.2955,94.5581-1.2955,142.485C590.8431,643.2637,590.8431,691.1906,589.5477,737.822L589.5477,737.822z
			 M820.1146,705.4391c-3.886,11.6577-7.7719,23.3156-11.6579,34.9735c-42.7454,0-85.4911,1.2952-128.2365,2.5906
			c3.8858-10.3625,7.7719-20.7252,11.6577-32.3829C734.6236,709.3249,777.369,706.7343,820.1146,705.4391L820.1146,705.4391z
			 M562.3461,746.889c-3.8858-9.0671-7.7719-18.1343-11.6577-27.2017c9.0671,0,16.839,0,24.6111-1.2952
			c3.8858,9.0671,7.7719,18.1343,11.6577,27.2017C579.1852,746.889,570.118,746.889,562.3461,746.889L562.3461,746.889z
			 M546.8023,837.5616c0-36.269,1.2955-73.8334,1.2955-110.1023c3.8858,9.0673,7.7719,18.1346,11.6577,27.2018
			c0,18.1344-1.2952,37.5642-1.2952,55.6988C554.5742,819.427,550.6884,828.4943,546.8023,837.5616L546.8023,837.5616z
			 M589.5477,825.9036c0,51.8127-1.2952,102.3302-1.2952,152.8475c-1.2954,50.5175-1.2954,101.035-2.5906,152.8477
			c-3.886,7.7719-7.7719,15.5437-11.6579,23.3158c1.2954-50.5175,1.2954-101.035,1.2954-150.2571
			c1.2952-50.5175,1.2952-99.7396,2.5906-150.2568C581.7759,845.3334,585.6619,836.2662,589.5477,825.9036L589.5477,825.9036z
			 M838.249,1131.5989c-54.4034-11.658-107.5115-24.6111-160.6196-38.8596c3.886-10.3625,7.7721-19.4297,11.658-28.4968
			c53.1081,11.6577,107.5114,23.3157,160.6196,33.6781C846.0211,1109.5784,842.1351,1119.9409,838.249,1131.5989L838.249,1131.5989z
			 M1548.0837,398.4485c0,47.9266-1.2952,97.1487-1.2952,145.0756s-1.2954,95.8536-1.2954,143.7805
			c33.6783,45.3362,67.3567,89.3771,102.3302,128.2366c32.3832,37.5641,67.3567,71.2425,101.035,101.0348
			c1.2952,25.9065,1.2952,50.5175,1.2952,76.4238c-33.6783,10.3627-67.3567,19.4298-102.3302,27.2018
			c0-50.5175,0-102.3302,0-154.1431c-33.6783,42.7457-67.3567,88.0817-101.0348,136.0085c0,66.0612,0,133.4179,0,199.4792
			c108.8066-41.4502,216.3181-90.6722,323.8298-165.8008c0-27.2017,0-55.6988,0-84.1959
			c-1.2954-28.4969-1.2954-56.994-1.2954-85.4911c-34.9736-19.4297-69.9474-46.6314-102.3302-79.0143
			c-34.9736-34.9736-68.652-76.4238-101.0348-119.1694c0-27.2017,0-55.6987,0-82.9005
			c33.6781,9.0673,67.3564,18.1346,102.3302,28.4971c-1.2954,44.0408-1.2954,86.7863-1.2954,130.8271
			c33.6783-28.4969,67.3566-50.5173,102.3302-64.7659c0-38.8596,1.2954-77.7192,1.2954-116.5787
			C1763.1067,489.1207,1655.5952,439.8987,1548.0837,398.4485L1548.0837,398.4485z M1851.1884,569.4305
			c-94.5581-51.813-189.1165-90.6724-283.6748-123.0554c-3.8857-11.658-7.7719-23.3157-11.6578-33.6781
			c102.3302,37.5641,204.6604,82.9001,306.9906,148.9617C1858.9604,564.249,1855.0745,566.8398,1851.1884,569.4305
			L1851.1884,569.4305z M1550.6744,674.3514c0-42.7457,0-85.4911,1.2954-128.2366c0-41.4503,0-84.1959,0-126.9413
			c3.8859,11.6578,7.7719,22.0204,11.658,33.6783c0,33.6783,0,68.6519,0,102.3302c-1.2955,33.6783-1.2955,68.6519-1.2955,102.3302
			C1558.4465,662.6934,1554.5604,667.8747,1550.6744,674.3514L1550.6744,674.3514z M1628.3936,1073.3096
			c46.6317-14.2487,94.5583-29.7924,142.485-46.6316c0-46.6314,0-91.9677-1.2952-138.5991
			c-33.6781-29.7923-68.6519-62.1752-102.3302-101.0348c-33.6781-38.8596-67.3564-82.9004-101.035-129.5319
			c1.2954-32.3829,1.2954-66.0613,1.2954-99.7396s0-67.3567,1.2954-101.035c93.2629,32.3832,186.5259,68.6521,281.0842,119.1697
			c-1.2953,24.611-1.2953,49.222-1.2953,73.8331c-20.7251,7.7719-41.4503,19.4298-60.8799,33.6782
			c0-34.9736,0-68.6519,1.2952-102.3302c-47.9266-18.1344-95.8535-34.9735-142.485-49.2222
			c-1.2954,54.4036-1.2954,108.8069-1.2954,163.2103c33.6783,42.7456,66.0612,81.6052,101.0349,116.5787
			c33.6782,33.6783,67.3566,59.5848,102.3302,81.605c0,22.0206,0,44.0408,0,64.766c1.2953,22.0204,1.2953,44.0408,1.2953,66.0613
			c-94.5583,49.2222-187.8213,86.7865-282.3796,117.874c0-37.5642,0-73.8333,0-111.3973
			c19.4301-28.4971,40.155-56.9942,59.5846-85.4911C1627.0981,987.8184,1628.3936,1030.5641,1628.3936,1073.3096
			L1628.3936,1073.3096z M1783.8319,594.0416c0,31.0877-1.2952,63.4706-1.2952,94.5581
			c-3.8861,10.3627-7.7721,22.0206-11.6582,33.6783c0-37.5641,1.2954-73.8331,1.2954-111.3973
			C1776.0598,605.6995,1779.9459,599.2228,1783.8319,594.0416L1783.8319,594.0416z M1851.1884,886.7836
			c-33.6783-22.0204-67.3564-47.9269-99.7394-80.3098c-34.9738-33.6783-67.3567-72.538-99.7395-113.9882
			c3.8857-5.1812,7.7719-10.3625,11.6576-14.2485c32.3832,40.155,64.7661,80.3098,98.4445,113.9882
			c32.3829,32.3829,67.3567,58.2894,99.7395,79.0145C1857.665,876.4211,1855.0745,881.6024,1851.1884,886.7836L1851.1884,886.7836z
			 M1640.0515,886.7836c-3.8861,14.2485-7.7719,29.7923-11.658,45.3361c-20.725,28.4971-41.45,58.2894-62.1754,88.0818
			c-3.8859-5.1815-7.7716-10.3627-11.6577-16.8391C1583.0575,963.2074,1611.5544,924.3478,1640.0515,886.7836L1640.0515,886.7836z
			 M1765.6974,1009.8389c-3.8859-6.4764-7.772-12.9531-11.6577-18.1344c0-25.9064,0-50.5175,0-75.1285
			c3.8857-6.4767,7.7719-11.6579,11.6577-16.8392C1765.6974,936.0057,1765.6974,973.5699,1765.6974,1009.8389L1765.6974,1009.8389z
			 M1636.1654,1061.6519c3.8861-10.3628,7.7721-20.7253,11.658-31.0878c34.9735-9.0673,69.9473-19.4298,104.9209-29.7925
			c3.886,6.4767,7.7719,12.9534,11.6578,19.43C1721.6567,1035.7454,1678.9111,1048.6985,1636.1654,1061.6519L1636.1654,1061.6519z
			 M1551.9698,1182.1163c-1.2954-56.9941-1.2954-112.6927-1.2954-169.6868c3.886,5.1815,7.7721,10.3627,12.9534,16.8392
			c-1.2955,38.8595,0,79.0145,0,119.1693C1559.7417,1158.8005,1554.5604,1170.4585,1551.9698,1182.1163L1551.9698,1182.1163z
			 M526.0771,436.0126c-40.1548,18.1346-80.3096,38.8596-119.1692,60.88c-1.2954,79.0146-1.2954,159.3242-1.2954,238.3388
			c-1.2952,80.3098-2.5906,159.3242-3.8858,238.3385c-11.6579-3.8858-24.6113-7.7719-37.5644-11.6577
			c0-36.2689,1.2954-72.5379,1.2954-110.1023c-40.155,28.4971-80.3098,49.2223-120.4648,59.5848
			c-1.2952,25.9063-1.2952,51.8127-1.2952,77.7191c91.9675,64.7658,183.9352,115.2834,277.1981,159.3242
			c0-117.8739,2.5906-237.0433,3.886-356.2126C526.0771,673.056,526.0771,553.8866,526.0771,436.0126L526.0771,436.0126z
			 M518.3052,448.9657c-3.8858,10.3628-7.7719,20.7252-11.6579,31.0878c-27.2017,11.6578-54.4034,24.611-81.605,37.5641
			c-2.5906-5.1812-7.7719-11.6577-11.6579-16.8389C448.3582,482.644,483.3317,464.5096,518.3052,448.9657L518.3052,448.9657z
			 M505.3521,489.1207c0,101.0348-1.2954,202.0698-1.2954,303.1046c-1.2952,99.7396-2.5906,200.7744-3.8858,301.8093
			c-79.0144-33.6782-158.029-71.2425-235.7481-115.2835c0-12.9531,0-27.2017,0-40.1548
			c25.9065-6.4767,53.1081-18.1344,79.0146-32.3829c0,27.2017,0,54.4033-1.2954,81.605
			c27.2017,11.658,53.1081,22.0204,80.3098,32.3831c1.2954-82.9006,2.5906-165.8008,2.5906-247.406
			c1.2954-82.9005,1.2954-164.5054,1.2954-247.4059C453.5394,512.4364,479.4457,500.7787,505.3521,489.1207L505.3521,489.1207z
			 M417.2704,1003.3624c-2.5906-9.0673-6.4767-16.8392-10.3625-25.9065c1.2952-77.7192,2.5906-156.7335,3.8858-234.4527
			c0-77.7192,0-156.7335,1.2954-234.4527c2.5906,5.1813,6.4765,10.3624,10.3625,16.8391c0,79.0144-1.2952,159.3242-1.2952,239.634
			C421.1565,844.038,418.5657,924.3478,417.2704,1003.3624L417.2704,1003.3624z M357.6857,867.3539
			c-5.1812,10.3625-9.0671,19.4297-12.9531,29.7922c-27.2017,15.544-54.4033,27.2017-81.605,34.9736
			c-3.886-5.1813-7.7719-10.3625-11.6579-15.5438C286.4432,907.5087,321.4169,890.6695,357.6857,867.3539L357.6857,867.3539z
			 M247.5836,982.6372c0-20.725,0-41.4503,1.2954-62.1752c3.886,5.1813,7.7719,10.3625,11.6579,15.5438
			c0,14.2485-1.2954,28.4971-1.2954,42.7454C255.3557,980.0466,251.4696,981.342,247.5836,982.6372L247.5836,982.6372z
			 M414.6798,1008.5436c-22.0204-7.7721-42.7456-15.5439-64.7661-24.611c5.1812-5.1815,9.0673-10.3627,11.6579-15.5439
			c14.2485,5.1812,28.4971,9.0673,41.4502,14.2485C406.908,991.7045,410.7938,999.4764,414.6798,1008.5436L414.6798,1008.5436z"/>
		<linearGradient id="SVGID_3_" gradientUnits="userSpaceOnUse" x1="1057.158" y1="1299.4139" x2="1057.158" y2="300.9344">
			<stop  offset="0.0317" style="stop-color:#5C2D00"/>
			<stop  offset="0.0412" style="stop-color:#5F2F00"/>
			<stop  offset="0.0487" style="stop-color:#693401"/>
			<stop  offset="0.0557" style="stop-color:#7A3C02"/>
			<stop  offset="0.0622" style="stop-color:#924804"/>
			<stop  offset="0.0685" style="stop-color:#B15706"/>
			<stop  offset="0.0745" style="stop-color:#D66908"/>
			<stop  offset="0.0765" style="stop-color:#E47009"/>
			<stop  offset="0.0798" style="stop-color:#E5740D"/>
			<stop  offset="0.0832" style="stop-color:#E77E1A"/>
			<stop  offset="0.0867" style="stop-color:#EB902E"/>
			<stop  offset="0.0902" style="stop-color:#F0AA4B"/>
			<stop  offset="0.0937" style="stop-color:#F7CA70"/>
			<stop  offset="0.097" style="stop-color:#FFEF9B"/>
			<stop  offset="0.1032" style="stop-color:#FFE994"/>
			<stop  offset="0.112" style="stop-color:#FDD982"/>
			<stop  offset="0.1222" style="stop-color:#FBBF63"/>
			<stop  offset="0.1325" style="stop-color:#F99F3E"/>
			<stop  offset="0.1338" style="stop-color:#F99F3E"/>
			<stop  offset="0.1418" style="stop-color:#F99F3E"/>
			<stop  offset="0.1451" style="stop-color:#E18D34"/>
			<stop  offset="0.1502" style="stop-color:#C27528"/>
			<stop  offset="0.1558" style="stop-color:#A9621E"/>
			<stop  offset="0.162" style="stop-color:#955317"/>
			<stop  offset="0.1691" style="stop-color:#874911"/>
			<stop  offset="0.178" style="stop-color:#7F430E"/>
			<stop  offset="0.194" style="stop-color:#7D410D"/>
			<stop  offset="0.2206" style="stop-color:#793F0C"/>
			<stop  offset="0.2442" style="stop-color:#6F3909"/>
			<stop  offset="0.2631" style="stop-color:#603005"/>
			<stop  offset="0.2679" style="stop-color:#572802"/>
			<stop  offset="0.276" style="stop-color:#502301"/>
			<stop  offset="0.2985" style="stop-color:#4E2100"/>
			<stop  offset="0.3918" style="stop-color:#4E2100"/>
			<stop  offset="0.4216" style="stop-color:#FAC47C"/>
			<stop  offset="0.472" style="stop-color:#FABE6F"/>
			<stop  offset="0.4786" style="stop-color:#FBCE8F"/>
			<stop  offset="0.4865" style="stop-color:#FCDDAE"/>
			<stop  offset="0.4952" style="stop-color:#FDE9C7"/>
			<stop  offset="0.5049" style="stop-color:#FEF3DB"/>
			<stop  offset="0.5159" style="stop-color:#FFFAE8"/>
			<stop  offset="0.5297" style="stop-color:#FFFEF1"/>
			<stop  offset="0.5541" style="stop-color:#FFFFF3"/>
			<stop  offset="0.5746" style="stop-color:#EDB275"/>
			<stop  offset="0.5781" style="stop-color:#E8AD70"/>
			<stop  offset="0.5823" style="stop-color:#D99E61"/>
			<stop  offset="0.5869" style="stop-color:#C18649"/>
			<stop  offset="0.5917" style="stop-color:#9F6427"/>
			<stop  offset="0.5933" style="stop-color:#93571B"/>
			<stop  offset="0.6101" style="stop-color:#93571B"/>
			<stop  offset="0.6287" style="stop-color:#B46E21"/>
			<stop  offset="0.6342" style="stop-color:#B87226"/>
			<stop  offset="0.6404" style="stop-color:#C27E33"/>
			<stop  offset="0.6469" style="stop-color:#D4924A"/>
			<stop  offset="0.6537" style="stop-color:#ECAE6A"/>
			<stop  offset="0.6549" style="stop-color:#F1B370"/>
			<stop  offset="0.694" style="stop-color:#F0AE66"/>
			<stop  offset="0.6987" style="stop-color:#E8A964"/>
			<stop  offset="0.7057" style="stop-color:#D39D5E"/>
			<stop  offset="0.7143" style="stop-color:#B18955"/>
			<stop  offset="0.7164" style="stop-color:#A78352"/>
			<stop  offset="0.7332" style="stop-color:#A78352"/>
			<stop  offset="0.7364" style="stop-color:#B69261"/>
			<stop  offset="0.748" style="stop-color:#EBC594"/>
			<stop  offset="0.7537" style="stop-color:#FFD9A8"/>
			<stop  offset="0.7649" style="stop-color:#FFD9A8"/>
			<stop  offset="0.7671" style="stop-color:#ECC18E"/>
			<stop  offset="0.7705" style="stop-color:#D3A26D"/>
			<stop  offset="0.774" style="stop-color:#C08A53"/>
			<stop  offset="0.7776" style="stop-color:#B37941"/>
			<stop  offset="0.7813" style="stop-color:#AB6F36"/>
			<stop  offset="0.7854" style="stop-color:#A86C32"/>
			<stop  offset="0.8601" style="stop-color:#A26115"/>
			<stop  offset="0.8683" style="stop-color:#A46317"/>
			<stop  offset="0.8728" style="stop-color:#A9691F"/>
			<stop  offset="0.8765" style="stop-color:#B2742D"/>
			<stop  offset="0.8796" style="stop-color:#BE8441"/>
			<stop  offset="0.8825" style="stop-color:#CE985A"/>
			<stop  offset="0.8851" style="stop-color:#E2B179"/>
			<stop  offset="0.8876" style="stop-color:#FACD9E"/>
			<stop  offset="0.8881" style="stop-color:#FFD4A6"/>
			<stop  offset="0.8993" style="stop-color:#FFD4A6"/>
			<stop  offset="0.9254" style="stop-color:#BD8F61"/>
			<stop  offset="0.9319" style="stop-color:#BB8D60"/>
			<stop  offset="0.9354" style="stop-color:#B3885C"/>
			<stop  offset="0.9382" style="stop-color:#A57E56"/>
			<stop  offset="0.9405" style="stop-color:#92704E"/>
			<stop  offset="0.9422" style="stop-color:#806346"/>
			<stop  offset="0.9534" style="stop-color:#806346"/>
			<stop  offset="0.9552" style="stop-color:#806346"/>
			<stop  offset="0.9638" style="stop-color:#826548"/>
			<stop  offset="0.9668" style="stop-color:#876C4D"/>
			<stop  offset="0.969" style="stop-color:#927758"/>
			<stop  offset="0.9708" style="stop-color:#A08866"/>
			<stop  offset="0.9723" style="stop-color:#B39E79"/>
			<stop  offset="0.9737" style="stop-color:#CBBA91"/>
			<stop  offset="0.9749" style="stop-color:#E6D9AC"/>
			<stop  offset="0.9757" style="stop-color:#FFF6C5"/>
			<stop  offset="1" style="stop-color:#FFF6C5"/>
		</linearGradient>
		<path fill="none" stroke="url(#SVGID_3_)" stroke-width="4" stroke-miterlimit="10" d="M243.6977,989.1138
			c0-25.9064,0-51.8128,1.2953-77.7192c40.1549-10.3625,80.3098-31.0876,120.4646-59.5847c0,37.5643-1.2953,73.8332-1.2953,110.1021
			c12.9532,3.8859,25.9064,7.7719,37.5643,11.6578c1.2953-79.0144,2.5906-158.0289,3.886-238.3386
			c0-79.0145,0-159.3243,1.2953-238.3387c38.8596-22.0204,79.0144-42.7455,119.1693-60.88c0,117.874,0,237.0433-1.2953,356.2127
			c-1.2953,119.1693-3.886,238.3386-3.886,356.2126C427.633,1104.3972,335.6653,1053.8798,243.6977,989.1138z M413.3845,500.7786
			c3.886,5.1813,9.0672,11.6579,11.6579,16.8392c27.2017-12.9532,54.4034-25.9064,81.6051-37.5643
			c3.886-10.3625,7.7719-20.7251,11.6579-31.0876C483.3317,464.5096,448.3581,482.6441,413.3845,500.7786z M422.4517,525.3896
			c-3.886-6.4766-7.7719-11.6579-10.3625-16.8392c-1.2953,77.7191-1.2953,156.7336-1.2953,234.4528
			c-1.2953,77.7191-2.5906,156.7336-3.886,234.4527c3.886,9.0673,7.7719,16.8392,10.3625,25.9064
			c1.2953-79.0145,3.886-159.3242,3.886-238.3387C421.1564,684.7139,422.4517,604.4041,422.4517,525.3896z M505.3521,489.1207
			c-25.9064,11.6579-51.8127,23.3158-79.0144,36.269c0,82.9004,0,164.5055-1.2953,247.4059
			c0,81.6051-1.2953,164.5055-2.5906,247.4059c-27.2017-10.3625-53.1081-20.7251-80.3098-32.383
			c1.2953-27.2017,1.2953-54.4034,1.2953-81.6051c-25.9064,14.2485-53.1081,25.9064-79.0145,32.383c0,12.9532,0,27.2017,0,40.1548
			c77.7191,44.0409,156.7336,81.6051,235.748,115.2834c1.2953-101.0349,2.5906-202.0698,3.886-301.8093
			C504.0568,691.1904,505.3521,590.1556,505.3521,489.1207z M403.0219,982.6372c-12.9532-5.1813-27.2017-9.0673-41.4502-14.2485
			c-2.5906,5.1813-6.4766,10.3625-11.6579,15.5439c22.0204,9.0672,42.7455,16.8391,64.766,24.611
			C410.7939,999.4764,406.9079,991.7045,403.0219,982.6372z M251.4696,916.5759c3.886,5.1813,7.7719,10.3625,11.6579,15.5438
			c27.2017-7.7719,54.4034-19.4297,81.6051-34.9736c3.886-10.3625,7.7719-19.4298,12.9532-29.7924
			C321.4168,890.6696,286.4432,907.5087,251.4696,916.5759z M260.5368,936.0057c-3.886-5.1813-7.7719-10.3625-11.6579-15.5438
			c-1.2953,20.7251-1.2953,41.4502-1.2953,62.1753c3.886-1.2953,7.7719-2.5906,11.6579-3.886
			C259.2415,964.5027,260.5368,950.2542,260.5368,936.0057z M570.118,1171.7538c0-53.108,0-104.9209,1.2953-158.0289
			c0-51.8127,1.2953-104.9208,1.2953-156.7336c-10.3625-1.2953-20.7251-2.5906-31.0876-2.5906
			c1.2953-47.9268,1.2953-95.8536,1.2953-143.7804c10.3625,0,20.7251-1.2953,31.0876-2.5906
			c0-49.2221,1.2953-98.4442,1.2953-147.6664c0-49.2221,0-98.4442,0-147.6664c95.8536-37.5642,191.7072-68.6519,286.2655-91.9676
			c0,62.1753,0,125.6459-1.2953,187.8212c-54.4034,7.7719-110.1021,16.8392-165.8008,27.2017c0,54.4034,0,108.8068-1.2953,163.2101
			c45.3362-2.5906,89.377-3.8859,134.7132-6.4766c0,60.88-1.2953,123.0553-1.2953,183.9353
			c-45.3361-3.886-89.377-6.4766-134.7131-10.3625c0,62.1753,0,124.3506-1.2953,186.5259
			c55.6987,12.9531,111.3975,23.3157,167.0962,33.6782c-1.2953,62.1753-1.2953,124.3506-1.2953,186.526
			C760.53,1244.2916,665.9717,1210.6133,570.118,1171.7538z M583.0712,420.4688c3.886,7.7719,7.772,16.8391,11.6579,24.6111
			c82.9004-28.497,165.8008-51.8128,247.4059-71.2426c3.8859-12.9532,7.7719-25.9064,11.6578-37.5642
			C764.4159,358.2935,673.7436,386.7905,583.0712,420.4688z M691.8781,710.6202c-3.886,11.6578-7.7719,22.0204-11.6579,32.383
			c42.7455-1.2953,85.4911-2.5906,128.2366-2.5906c3.886-11.6579,7.7719-23.3158,11.6579-34.9736
			C777.3691,706.7343,734.6236,709.3249,691.8781,710.6202z M836.9537,1143.2567
			c-55.6987-11.6578-111.3974-25.9064-167.0961-41.4502c0-49.222,0-97.1489,1.2953-146.371c0-47.9268,1.2953-97.1489,1.2953-146.371
			c44.0409,1.2953,89.377,3.886,133.4178,5.1813c0-20.7251,1.2953-41.4502,1.2953-60.8799c-45.3362,0-89.377,0-134.7132,1.2953
			c0-45.3362,1.2953-89.377,1.2953-134.7131c0-45.3362,0-89.377,0-134.7132c55.6987-14.2485,111.3974-25.9064,167.0961-36.2689
			c0-20.7251,0-41.4502,0-62.1753c-81.6051,18.1345-163.2102,41.4502-244.8152,68.6519c0,49.2221,0,99.7395,0,150.257
			c-1.2953,50.5175-1.2953,101.0349-1.2953,150.257c-10.3625,1.2953-20.7251,1.2953-31.0876,1.2953c0,16.8392,0,32.383,0,49.2221
			c10.3625,0,20.7251,1.2953,31.0876,1.2953c-1.2953,53.1081-1.2953,107.5115-2.5906,160.6195
			c0,53.1081-1.2953,107.5115-1.2953,160.6196c81.605,28.4969,163.2101,54.4033,244.8152,76.4237
			C835.6584,1184.7069,835.6584,1163.9818,836.9537,1143.2567z M592.1385,454.1471c-3.8859-9.0672-7.7719-16.8391-11.6579-24.6111
			c-1.2953,46.6315-1.2953,94.5583-1.2953,141.1897c0,46.6315,0,93.263-1.2953,139.8945
			c3.886,9.0672,7.7719,18.1345,11.6579,27.2017c1.2953-46.6315,1.2953-94.5583,1.2953-141.1898
			C590.8432,548.7054,590.8432,500.7786,592.1385,454.1471z M689.2874,1064.2423c-3.886,9.0673-7.7719,18.1344-11.6579,28.4969
			c53.1081,14.2485,106.2162,27.2018,160.6196,38.8596c3.886-11.6578,7.7719-22.0204,11.6579-33.6783
			C796.7989,1087.558,742.3955,1075.9001,689.2874,1064.2423z M575.2993,718.3922c-7.7719,1.2953-15.5438,1.2953-24.611,1.2953
			c3.8859,9.0673,7.7719,18.1345,11.6578,27.2017c7.7719,0,16.8392,0,24.6111-1.2953
			C583.0712,736.5266,579.1853,727.4594,575.2993,718.3922z M559.7555,754.6611c-3.8859-9.0672-7.7719-18.1345-11.6578-27.2017
			c0,36.269-1.2953,73.8332-1.2953,110.1021c3.886-9.0672,7.7719-18.1345,11.6579-27.2017
			C558.4602,792.2253,559.7555,772.7955,559.7555,754.6611z M589.5479,825.9036c-3.886,10.3625-7.7719,19.4297-11.6579,28.497
			c-1.2953,50.5175-1.2953,99.7396-2.5906,150.257c0,49.2221,0,99.7396-1.2953,150.257c3.8859-7.772,7.7719-15.5438,11.6578-23.3158
			c1.2953-51.8127,1.2953-102.3302,2.5907-152.8477C588.2526,928.2338,589.5479,877.7164,589.5479,825.9036z M875.8134,1277.97
			c0-79.0145,0-159.3242,1.2953-238.3387c33.6783-47.9268,67.3566-97.1489,102.3302-148.9617
			c-1.2953,69.9472-1.2953,141.1898-1.2953,212.4323c33.6783,2.5907,67.3566,2.5907,101.0348,2.5907
			c1.2954-40.1549,1.2954-80.3098,1.2954-120.4647c-33.6783-54.4034-67.3566-108.8068-101.0349-164.5055
			c-33.6783-53.1081-67.3566-106.2162-101.0349-158.0289c1.2953-56.994,1.2953-115.2834,1.2953-172.2774
			c0-58.2893,1.2953-115.2834,1.2953-172.2774c107.5115-16.8391,213.7277-19.4298,321.239-9.0672
			c0,81.6051,0,161.9149-1.2953,242.2246c-33.6782,51.8127-67.3566,103.6255-102.3302,158.0289
			c1.2954-71.2425,1.2954-142.485,1.2954-212.4323c-33.6783-1.2953-67.3567-1.2953-101.0349,0c0,40.1549,0,79.0144-1.2953,117.8741
			c33.6783,54.4034,67.3566,108.8068,101.0349,163.2101c33.6783,54.4034,67.3566,107.5115,101.0349,160.6196
			c0,58.2894,0,116.5787,0,176.1634c0,58.2893,0,117.874,0,176.1633C1090.8363,1302.5809,983.3248,1298.6951,875.8134,1277.97z
			 M888.7665,328.5012c3.8859,11.6579,7.7719,23.3157,10.3625,33.6783c94.5583-10.3625,189.1165-12.9532,283.6749-5.1813
			c3.8859-11.6579,7.7719-23.3157,11.6578-34.9736C1092.1316,311.662,991.0967,314.2527,888.7665,328.5012z M1116.7427,454.1471
			c-3.886,11.6579-7.772,24.6111-11.6578,36.2689c-1.2954,60.88-1.2954,120.4647-1.2954,181.3447
			c3.886-19.4298,7.772-38.8596,11.658-58.2894C1115.4474,560.3632,1115.4474,507.2552,1116.7427,454.1471z M996.278,629.0151
			c-3.886,6.4766-7.7719,14.2485-11.6579,22.0204c32.383,53.108,64.766,106.2161,98.4442,159.3242
			c32.3831,53.1081,66.0613,104.9208,98.4442,156.7336c3.886-7.7719,7.772-15.5438,11.658-23.3157
			c-33.6783-51.8127-66.0613-103.6255-98.4442-156.7336C1061.0439,733.936,1028.661,680.8279,996.278,629.0151z M1178.918,980.0466
			c-33.6783-53.1081-67.3566-106.2161-101.0349-160.6196c-33.6782-54.4034-67.3566-108.8068-99.7395-163.2101
			c0-73.8332,0-148.9617,1.2953-222.7949c46.6315-2.5906,94.5582-3.886,142.4851-2.5906
			c-1.2953,56.994-1.2953,115.2834-1.2953,172.2774c19.4297-31.0876,40.1548-62.1753,59.5846-91.9677
			c1.2953-46.6315,1.2953-94.5583,1.2953-141.1898c-93.2629-7.7719-186.5259-5.1813-281.0842,5.1813c0,41.4502,0,82.9004,0,124.3506
			s-1.2953,82.9004-1.2953,124.3506c33.6783,51.8127,67.3566,104.9208,101.0349,158.0289
			c33.6783,54.4034,67.3566,108.8068,101.0349,163.2101c0,75.1285-1.2953,150.257-1.2953,225.3856
			c-47.9269,1.2953-95.8536-1.2954-142.4852-6.4767c0-56.994,0-112.6927,0-169.6867
			c-19.4297,29.7923-40.1548,59.5847-60.8799,88.0816c0,45.3362,0,90.6724,0,137.3038
			c93.2629,14.2485,187.8212,16.8392,282.3795,9.0673c0-41.4502,0-82.9004,0-124.3506S1178.918,1021.4968,1178.918,980.0466z
			 M1096.0176,963.2074c-3.886,6.4766-7.772,14.2485-11.658,22.0204c0,40.1548,0,80.3098,0,119.1694
			c3.886,12.9531,7.772,24.6111,11.658,36.2689C1096.0176,1081.0814,1096.0176,1021.4968,1096.0176,963.2074z M896.5385,372.542
			c-3.886-10.3625-7.7719-22.0204-11.6579-33.6783c0,51.8127,0,102.3302,0,154.1429
			c-1.2953,50.5175-1.2953,101.0349-1.2953,152.8477c3.8859-7.7719,7.7719-14.2485,11.6578-22.0204
			c0-41.4502,0-84.1957,1.2953-125.6459C896.5385,456.7377,896.5385,415.2875,896.5385,372.542z M1081.769,1119.941
			c-34.9736,0-69.9472-1.2953-104.9208-3.886c-3.8859,11.6578-7.7719,23.3158-11.6578,34.9736
			c42.7455,5.1813,85.491,6.4766,128.2365,5.1813C1090.8363,1144.5521,1086.9503,1131.5989,1081.769,1119.941z M884.8806,1044.8125
			c3.886,7.772,7.7719,15.5438,10.3625,23.3158c22.0204-29.7924,42.7455-60.88,64.7659-93.263
			c3.886-18.1345,7.772-38.8596,11.6579-58.2894C941.8746,960.6168,913.3776,1003.3623,884.8806,1044.8125z M892.6525,1078.4908
			c-3.8859-9.0673-7.7719-16.8392-11.6578-24.6111c-1.2953,67.3566-1.2953,136.0084-1.2953,203.3651
			c3.886-10.3625,7.7719-22.0205,11.6579-32.3831C892.6525,1175.6398,892.6525,1126.4176,892.6525,1078.4908z M1217.7776,1288.3325
			c0-163.2102,1.2953-326.4204,1.2953-488.3353c0-163.2102,1.2953-326.4204,2.5906-488.3352
			c40.1549,6.4766,79.0145,14.2485,119.1693,24.6111c-1.2953,124.3506-2.5906,248.7012-2.5906,373.0518
			c0,123.0553,0,248.7012,0,371.7565c23.3158-2.5906,46.6315-6.4766,69.9473-10.3625c0-119.1693,0-239.634,0-358.8033
			s1.2953-238.3387,2.5906-357.508c38.8596,11.6579,79.0145,23.3157,119.1693,36.2689
			c-1.2953,137.3038-2.5906,273.3123-2.5906,409.3208s0,272.0169,1.2953,408.0255
			C1425.0286,1240.4056,1321.4031,1266.312,1217.7776,1288.3325z M1417.2566,369.9514c3.886,11.6579,7.772,23.3157,11.658,34.9736
			c27.2017,7.7719,54.4033,15.5439,81.6051,23.3158c3.8859-9.0672,7.7719-18.1345,11.6578-27.2017
			C1487.2039,389.3811,1452.2302,379.0186,1417.2566,369.9514z M1426.3239,413.9922c-3.886-12.9532-7.7719-24.6111-10.3625-36.269
			c-1.2953,116.5787-2.5906,231.8621-2.5906,347.1454c0,116.5787,0,231.8621,0,348.4409
			c3.8859,10.3625,7.7719,20.7251,11.6578,29.7922c0-113.988-1.2953-229.2714,0-344.5547
			C1425.0286,643.2637,1425.0286,527.9803,1426.3239,413.9922z M1228.1401,327.2058c3.8859,12.9532,7.7719,25.9064,11.6578,38.8596
			c27.2017,5.1813,54.4033,9.0672,81.6051,15.5438c3.8859-11.6579,7.7719-22.0204,11.6578-33.6783
			C1298.0873,340.159,1263.1136,333.6824,1228.1401,327.2058z M1509.2242,438.6033c-27.2017-6.4766-53.108-14.2485-79.0144-20.7251
			c-1.2953,117.874-1.2953,235.748-1.2953,352.3267c0,117.874,0,235.748,0,353.6221
			c-37.5643,7.7719-73.8333,14.2484-111.3975,20.7251c0-124.3506,0-249.9966,0-375.6425s1.2953-251.2919,2.5906-375.6425
			c-27.2017-6.4766-53.108-10.3625-79.0144-15.5438c-1.2953,141.1898-2.5906,281.0842-2.5906,422.274
			c0,139.8944,0,279.7889,0,420.9786c89.377-16.8391,180.0493-37.5642,269.4263-60.8799c0-120.4647-1.2953-240.9294-1.2953-360.0987
			C1506.6337,679.5326,1507.929,559.0679,1509.2242,438.6033z M1409.4847,1082.3767c-24.6111,3.886-47.9268,7.772-72.5378,11.658
			c-3.886,12.9531-7.772,24.6111-11.658,36.2689c32.3831-5.1813,63.4707-11.6578,95.8536-16.8391
			C1417.2566,1103.1018,1413.3707,1092.7393,1409.4847,1082.3767z M1237.2073,373.8373
			c-3.8859-12.9532-7.7719-24.6111-11.6578-37.5642c-1.2953,154.1429-2.5906,309.5812-2.5906,463.7242
			c0,155.4382,0,309.5812,0,465.0195c3.8859-12.9531,7.7719-25.9064,11.6578-38.8596c0-141.1897,0-283.6748,0-426.1599
			C1234.6167,658.8075,1235.912,516.3224,1237.2073,373.8373z M1546.7886,1201.5461c0-66.0613,0-133.4178,0-199.4791
			c33.6782-47.9268,67.3566-93.263,101.0348-136.0085c0,51.8127,0,103.6255,0,154.1429
			c34.9736-7.7719,68.652-16.8392,102.3302-27.2017c0-25.9064,0-50.5175-1.2953-76.4238
			c-33.6783-29.7923-68.6519-63.4706-101.0349-101.0349c-34.9735-38.8596-68.6519-82.9004-102.3302-128.2366
			c0-47.9268,1.2954-95.8536,1.2954-143.7804c0-47.9268,1.2953-97.1489,1.2953-145.0757
			c107.5115,41.4502,215.0229,90.6723,322.5344,164.5055c0,38.8596-1.2953,77.7192-1.2953,116.5787
			c-34.9736,14.2485-68.652,36.2689-102.3302,64.7659c0-44.0408,0-86.7864,1.2953-130.8272
			c-34.9736-10.3625-68.652-19.4298-102.3302-28.497c0,27.2017,0,55.6987,0,82.9004
			c32.3829,42.7455,66.0613,84.1957,101.0349,119.1694c32.3829,32.3829,67.3566,59.5847,102.3302,79.0145
			c0,28.497,0,56.994,1.2953,85.491c0,28.497,0,56.994,0,84.1957C1763.1068,1110.8738,1655.5953,1160.0959,1546.7886,1201.5461z
			 M1555.8557,412.6969c3.886,10.3626,7.772,22.0204,11.658,33.6783c94.5582,32.383,189.1166,71.2426,283.6748,123.0553
			c3.886-2.5906,7.772-5.1813,11.6578-7.7719C1760.5161,495.5973,1658.1859,450.2611,1555.8557,412.6969z M1783.8319,594.0415
			c-3.886,5.1813-7.772,11.6579-11.6578,16.8392c0,37.5643-1.2954,73.8332-1.2954,111.3974
			c3.886-11.6578,7.772-23.3157,11.658-33.6783C1782.5366,657.5121,1783.8319,625.1292,1783.8319,594.0415z M1663.3672,678.2372
			c-3.8859,3.886-7.7719,9.0673-11.6578,14.2485c32.3829,41.4502,64.766,80.3098,99.7396,113.988
			c32.3829,32.383,66.0612,58.2894,99.7395,80.3098c3.886-5.1813,6.4766-10.3625,10.3625-15.5438
			c-32.3829-20.7252-67.3566-46.6315-99.7395-79.0145C1728.1332,758.5471,1695.7502,718.3922,1663.3672,678.2372z
			 M1848.5979,893.2602c-34.9736-22.0204-68.652-47.9268-102.3302-81.6051c-34.9736-34.9736-67.3567-73.8331-101.0349-116.5787
			c0-54.4034,0-108.8068,1.2953-163.2102c46.6315,14.2485,94.5583,31.0876,142.4851,49.2221
			c-1.2953,33.6783-1.2953,67.3566-1.2953,102.3302c19.4297-14.2485,40.1548-25.9064,60.88-33.6783
			c0-24.611,0-49.2221,1.2953-73.8332c-94.5583-50.5174-187.8213-86.7863-281.0842-119.1693
			c-1.2953,33.6783-1.2953,67.3566-1.2953,101.0349s0,67.3566-1.2954,99.7396c33.6783,46.6315,67.3567,90.6724,101.0349,129.5319
			c33.6783,38.8596,68.652,71.2426,102.3302,101.0349c1.2953,46.6315,1.2953,91.9677,1.2953,138.5992
			c-47.9268,16.8391-95.8535,32.3829-142.485,46.6315c0-42.7456-1.2954-85.4911-1.2954-128.2366
			c-19.4297,28.497-40.1549,56.9941-59.5846,85.491c0,37.5643,0,73.8333,0,111.3975
			c94.5582-31.0876,187.8212-68.6519,282.3795-117.874c0-22.0204,0-44.0408-1.2953-66.0613
			C1848.5979,937.301,1848.5979,915.2806,1848.5979,893.2602z M1765.6974,899.7368c-3.8859,5.1813-7.7719,10.3625-11.6578,16.8391
			c0,24.6111,0,49.2221,0,75.1285c3.886,5.1813,7.772,11.6578,11.6578,18.1345
			C1765.6974,973.5699,1765.6974,936.0057,1765.6974,899.7368z M1563.6277,452.8518c-3.886-11.6579-7.772-22.0204-11.6578-33.6783
			c0,42.7455,0,85.491,0,126.9413c-1.2954,42.7455-1.2954,85.491-1.2954,128.2366c3.886-6.4766,7.772-11.6579,11.658-16.8392
			c0-33.6783,0-68.6519,1.2953-102.3302C1563.6277,521.5037,1563.6277,486.5301,1563.6277,452.8518z M1752.7443,1000.7717
			c-34.9736,10.3625-69.9473,20.7251-104.9209,29.7923c-3.8859,10.3625-7.7719,20.7251-11.6578,31.0876
			c42.7455-12.9531,85.4911-25.9064,128.2366-41.4501C1760.5161,1013.7249,1756.6302,1007.2483,1752.7443,1000.7717z
			 M1554.5604,1003.3623c3.886,6.4766,7.772,11.6579,11.6578,16.8392c20.7251-29.7924,41.4503-59.5847,62.1754-88.0817
			c3.8859-15.5438,7.7719-31.0876,11.6578-45.3361C1611.5544,924.3478,1583.0575,963.2074,1554.5604,1003.3623z
			 M1563.6277,1029.2687c-5.1813-6.4766-9.0673-11.6578-12.9532-16.8391c0,56.994,0,112.6927,1.2954,169.6868
			c2.5906-11.6578,7.7719-23.3158,11.6578-33.6783C1563.6277,1108.2832,1562.3324,1068.1283,1563.6277,1029.2687z"/>
	</g>
	<g>
		<g>
			<linearGradient id="SVGID_4_" gradientUnits="userSpaceOnUse" x1="0.1597" y1="800.0093" x2="2560.1597" y2="800.0093">
				<stop  offset="0" style="stop-color:#2F310E"/>
				<stop  offset="0.03" style="stop-color:#343613"/>
				<stop  offset="0.08" style="stop-color:#F0F3D0"/>
				<stop  offset="0.13" style="stop-color:#D6D9B8"/>
				<stop  offset="0.2" style="stop-color:#BA933B"/>
				<stop  offset="0.29" style="stop-color:#F2D57F"/>
				<stop  offset="0.36" style="stop-color:#9D8033"/>
				<stop  offset="0.4" style="stop-color:#4E491E"/>
				<stop  offset="0.51" style="stop-color:#EDBE54"/>
				<stop  offset="0.6" style="stop-color:#D3BA80"/>
				<stop  offset="0.63" style="stop-color:#5D5322"/>
				<stop  offset="0.7" style="stop-color:#CFB577"/>
				<stop  offset="0.74" style="stop-color:#FFFFFF"/>
				<stop  offset="0.87" style="stop-color:#F7F2E9"/>
				<stop  offset="0.91" style="stop-color:#AF8B39"/>
				<stop  offset="0.97" style="stop-color:#524B1F"/>
				<stop  offset="1" style="stop-color:#FFFFFF"/>
			</linearGradient>
			<path fill="url(#SVGID_4_)" d="M2511.801,1074.6049c-88.0815-73.8332-182.6399-155.4383-279.7888-237.0434
				c-104.9209,86.7864-215.0229,174.8681-305.6952,233.1574c-553.1012,357.5081-1101.0211,345.8502-1638.5785-32.3829
				C274.7854,1029.2687-2.4129,814.2457,0.1777,799.9973c584.1888,507.765,1215.0092,660.6126,1893.7562,221.4995
				c85.4911-55.6987,191.7072-138.5991,292.7421-221.4995c-168.3914-137.3038-347.1454-268.131-525.8994-349.7361
				C1050.6814,173.0629,476.8551,367.3607,0.1777,799.9973l0,0l0,0l0,0l28.497-27.2017
				c475.382-442.9991,1033.6644-659.3173,1656.7129-375.6425c187.8212,85.4911,373.0518,221.4995,546.6245,363.9846
				c55.6987-45.3362,107.5115-89.377,152.8477-126.9413c41.4502-34.9736,84.1958-71.2426,125.646-107.5115
				c12.9531-10.3625,31.0876-9.0672,41.4502,2.5906c11.6577,11.6579,10.3625,31.0876-1.2954,41.4502
				c-42.7454,37.5643-85.491,73.8332-128.2366,108.8068c-42.7454,36.2689-91.9675,77.7191-143.7803,120.4647
				c93.2629,77.7191,183.9353,156.7336,270.7217,229.2714c12.9531,11.6578,14.2483,29.7924,3.8857,42.7455
				C2542.8887,1083.6721,2523.459,1084.9674,2511.801,1074.6049z M0.1777,799.9973L0.1777,799.9973L0.1777,799.9973L0.1777,799.9973
				z"/>
			<linearGradient id="SVGID_5_" gradientUnits="userSpaceOnUse" x1="-2.855" y1="800.0094" x2="2563.1592" y2="800.0094">
				<stop  offset="0" style="stop-color:#B3892E"/>
				<stop  offset="0.0055" style="stop-color:#B58D33"/>
				<stop  offset="0.0924" style="stop-color:#DAC682"/>
				<stop  offset="0.1543" style="stop-color:#F1E9B4"/>
				<stop  offset="0.1847" style="stop-color:#FAF7C7"/>
				<stop  offset="0.2986" style="stop-color:#FAF7C7"/>
				<stop  offset="0.3007" style="stop-color:#F9F6C5"/>
				<stop  offset="0.3364" style="stop-color:#F1E3A4"/>
				<stop  offset="0.3707" style="stop-color:#ECD58D"/>
				<stop  offset="0.4028" style="stop-color:#E8CD7F"/>
				<stop  offset="0.4303" style="stop-color:#E7CA7A"/>
				<stop  offset="0.4892" style="stop-color:#9B6F2A"/>
				<stop  offset="0.6051" style="stop-color:#9B6F2A"/>
				<stop  offset="0.6055" style="stop-color:#9C702B"/>
				<stop  offset="0.6226" style="stop-color:#B98E43"/>
				<stop  offset="0.6393" style="stop-color:#CEA454"/>
				<stop  offset="0.6554" style="stop-color:#DBB25E"/>
				<stop  offset="0.6699" style="stop-color:#DFB662"/>
				<stop  offset="0.671" style="stop-color:#D8AC5C"/>
				<stop  offset="0.6751" style="stop-color:#C08A44"/>
				<stop  offset="0.6791" style="stop-color:#AF7234"/>
				<stop  offset="0.6827" style="stop-color:#A56329"/>
				<stop  offset="0.6857" style="stop-color:#A15E26"/>
				<stop  offset="0.6961" style="stop-color:#A5652E"/>
				<stop  offset="0.7121" style="stop-color:#B17A43"/>
				<stop  offset="0.7317" style="stop-color:#C49B66"/>
				<stop  offset="0.7539" style="stop-color:#DFC897"/>
				<stop  offset="0.7741" style="stop-color:#FAF7C9"/>
				<stop  offset="0.7957" style="stop-color:#FAF7C9"/>
				<stop  offset="0.8468" style="stop-color:#E0B967"/>
				<stop  offset="0.8861" style="stop-color:#B38D46"/>
				<stop  offset="0.9116" style="stop-color:#B38D46"/>
				<stop  offset="0.9133" style="stop-color:#B58E45"/>
				<stop  offset="0.9241" style="stop-color:#BC943F"/>
				<stop  offset="0.9509" style="stop-color:#BE953E"/>
				<stop  offset="1" style="stop-color:#78481D"/>
			</linearGradient>
			<path fill="url(#SVGID_5_)" d="M1125.2815,269.3413c180.1227,0,367.0007,39.8906,560.1063,127.8118
				c187.8209,85.491,373.0516,221.4996,546.6244,363.9847c55.6985-45.3364,107.5115-89.377,152.8477-126.9413
				c41.4502-34.9737,84.196-71.2427,125.646-107.5114c5.9065-4.7253,12.8906-7.0266,19.7236-7.0266
				c8.1521,0,16.0894,3.2753,21.7266,9.6173c11.6577,11.6576,10.3623,31.0876-1.2952,41.45
				c-42.7458,37.5643-85.4912,73.8334-128.2368,108.807c-42.7454,36.2687-91.9675,77.719-143.7803,120.4647
				c93.2629,77.7191,183.9353,156.7333,270.7217,229.2714c12.9529,11.658,14.2483,29.7922,3.8857,42.7452
				c-5.6367,6.3414-13.9587,9.6173-22.2507,9.6173c-6.9521,0-13.8826-2.3007-19.1995-7.0266
				c-88.0815-73.833-182.6399-155.4384-279.7888-237.0433c-104.9207,86.7863-215.0231,174.868-305.6951,233.1573
				c-268.2461,173.3862-535.3566,259.9587-800.5742,259.9587c-281.6393,0-561.1545-97.5459-838.0045-292.3414
				c-12.953-9.0673-290.1513-224.0903-287.5607-238.3387c348.4666,302.8801,713.5423,479.4828,1095.4675,479.4828
				c258.3553,0,524.4116-80.7999,798.2885-257.9835c85.4913-55.6986,191.7073-138.599,292.7422-221.4993
				c-168.3912-137.304-347.1453-268.1313-525.8995-349.7363c-194.6764-88.4518-385.7412-128.8959-571.0538-128.9077
				C694.2852,321.3281,324.7513,505.4115,0.1778,799.9974l28.497-27.202C356.7186,467.098,724.2443,269.3413,1125.2815,269.3413
				 M1125.2815,266.3414c-98.1433,0-197.4327,12.0316-295.1094,35.7606c-93.8207,22.7924-188.653,56.9836-281.8623,101.624
				c-89.3,42.7683-179.4774,96.2604-268.0267,158.9906c-84.6013,59.9334-169.943,129.8757-253.6537,207.884L0.0833,795.9404
				l-1.9145-1.664l-0.9427,5.1843c-0.395,2.1727,0.22,5.0793,11.9253,16.632c7.038,6.946,17.4957,16.4177,31.0823,28.1514
				c23.178,20.0173,55.483,46.6656,96.0173,79.205c69.846,56.069,143.1963,112.745,149.767,117.3446
				c68.989,48.5417,139.1247,91.6274,208.4537,128.0557c69.3463,36.4377,139.827,67.2357,209.4847,91.5383
				c69.6786,24.3101,140.4843,42.801,210.4503,54.9603c69.986,12.1624,141.09,18.3293,211.3364,18.3293
				c66.167,0,133.3687-5.4757,199.7379-16.275c66.384-10.8016,133.7881-27.231,200.3394-48.8309
				c66.5693-21.6061,134.1444-48.989,200.8477-81.3883c66.7277-32.411,134.4474-70.7477,201.2777-113.9447
				c93.7096-60.2423,206.1301-150.806,304.051-231.7715c47.333,39.7737,94.2668,79.7241,139.6746,118.3759
				c48.1348,40.9727,93.6013,79.6744,138.1707,117.0344c5.6433,5.0005,13.1555,7.7543,21.1584,7.7543
				c9.564,0,18.4912-3.8723,24.4929-10.6243l0.0518-0.058l0.0486-0.061c5.5303-6.9127,8.175-15.4313,7.447-23.9867
				c-0.7346-8.632-4.8784-16.7512-11.6682-22.8625l-0.041-0.0367l-0.042-0.0353c-41.1411-34.3864-82.3208-69.5167-125.9185-106.7094
				c-46.1877-39.4029-93.9155-80.119-142.0283-120.2485c43.0715-35.559,89.2363-74.2492,141.0054-118.1741
				c42.5625-34.8243,85.7253-71.4479,128.293-108.8557c6.3694-5.6614,10.1641-13.9664,10.4233-22.796
				c0.2578-8.7664-2.9109-16.9185-8.9246-22.9662c-6-6.7115-14.7092-10.5585-23.9104-10.5585c-7.7336,0-15.4038,2.729-21.5977,7.684
				l-0.0518,0.0414l-0.05,0.0436c-42.1025,36.8401-85.25,73.4267-125.605,107.476c-15.8879,13.1647-32.4473,27.0207-49.979,41.6904
				c-32.2073,26.9495-65.4946,54.8026-100.9268,83.6694c-98.4497-80.7484-185.5662-146.8224-266.2838-201.9678
				c-99.8427-68.2111-191.1387-120.833-279.105-160.8727c-94.8051-43.165-190.8636-75.825-285.5073-97.073
				C1309.4749,276.774,1216.6681,266.3414,1125.2815,266.3414L1125.2815,266.3414z M4.6982,799.949
				c348.613-315.5912,713.6186-475.5956,1084.9429-475.5956l0.0653-3l-0.0002,3c190.2743,0.012,381.9869,43.2924,569.8293,128.639
				c151.4548,69.1422,312.6851,176.2323,522.4005,347.0123c-119.446,97.9086-216.8895,171.5809-289.6399,218.9784
				c-264.1034,170.8609-532.1381,257.4974-796.6506,257.4974C736.374,1276.4805,369.3483,1116.1608,4.6982,799.949L4.6982,799.949z"
				/>
			<linearGradient id="SVGID_6_" gradientUnits="userSpaceOnUse" x1="1280.1597" y1="1330.6776" x2="1280.1597" y2="269.3413">
				<stop  offset="0.0317" style="stop-color:#5C2D00"/>
				<stop  offset="0.0412" style="stop-color:#5F2F00"/>
				<stop  offset="0.0487" style="stop-color:#693401"/>
				<stop  offset="0.0557" style="stop-color:#7A3C02"/>
				<stop  offset="0.0622" style="stop-color:#924804"/>
				<stop  offset="0.0685" style="stop-color:#B15706"/>
				<stop  offset="0.0745" style="stop-color:#D66908"/>
				<stop  offset="0.0765" style="stop-color:#E47009"/>
				<stop  offset="0.0798" style="stop-color:#E5740D"/>
				<stop  offset="0.0832" style="stop-color:#E77E1A"/>
				<stop  offset="0.0867" style="stop-color:#EB902E"/>
				<stop  offset="0.0902" style="stop-color:#F0AA4B"/>
				<stop  offset="0.0937" style="stop-color:#F7CA70"/>
				<stop  offset="0.097" style="stop-color:#FFEF9B"/>
				<stop  offset="0.1032" style="stop-color:#FFE994"/>
				<stop  offset="0.112" style="stop-color:#FDD982"/>
				<stop  offset="0.1222" style="stop-color:#FBBF63"/>
				<stop  offset="0.1325" style="stop-color:#F99F3E"/>
				<stop  offset="0.1338" style="stop-color:#F99F3E"/>
				<stop  offset="0.1418" style="stop-color:#F99F3E"/>
				<stop  offset="0.1451" style="stop-color:#E18D34"/>
				<stop  offset="0.1502" style="stop-color:#C27528"/>
				<stop  offset="0.1558" style="stop-color:#A9621E"/>
				<stop  offset="0.162" style="stop-color:#955317"/>
				<stop  offset="0.1691" style="stop-color:#874911"/>
				<stop  offset="0.178" style="stop-color:#7F430E"/>
				<stop  offset="0.194" style="stop-color:#7D410D"/>
				<stop  offset="0.2206" style="stop-color:#793F0C"/>
				<stop  offset="0.2442" style="stop-color:#6F3909"/>
				<stop  offset="0.2631" style="stop-color:#603005"/>
				<stop  offset="0.2679" style="stop-color:#572802"/>
				<stop  offset="0.276" style="stop-color:#502301"/>
				<stop  offset="0.2985" style="stop-color:#4E2100"/>
				<stop  offset="0.3918" style="stop-color:#4E2100"/>
				<stop  offset="0.4216" style="stop-color:#FAC47C"/>
				<stop  offset="0.472" style="stop-color:#FABE6F"/>
				<stop  offset="0.4786" style="stop-color:#FBCE8F"/>
				<stop  offset="0.4865" style="stop-color:#FCDDAE"/>
				<stop  offset="0.4952" style="stop-color:#FDE9C7"/>
				<stop  offset="0.5049" style="stop-color:#FEF3DB"/>
				<stop  offset="0.5159" style="stop-color:#FFFAE8"/>
				<stop  offset="0.5297" style="stop-color:#FFFEF1"/>
				<stop  offset="0.5541" style="stop-color:#FFFFF3"/>
				<stop  offset="0.5746" style="stop-color:#EDB275"/>
				<stop  offset="0.5781" style="stop-color:#E8AD70"/>
				<stop  offset="0.5823" style="stop-color:#D99E61"/>
				<stop  offset="0.5869" style="stop-color:#C18649"/>
				<stop  offset="0.5917" style="stop-color:#9F6427"/>
				<stop  offset="0.5933" style="stop-color:#93571B"/>
				<stop  offset="0.6101" style="stop-color:#93571B"/>
				<stop  offset="0.6287" style="stop-color:#B46E21"/>
				<stop  offset="0.6342" style="stop-color:#B87226"/>
				<stop  offset="0.6404" style="stop-color:#C27E33"/>
				<stop  offset="0.6469" style="stop-color:#D4924A"/>
				<stop  offset="0.6537" style="stop-color:#ECAE6A"/>
				<stop  offset="0.6549" style="stop-color:#F1B370"/>
				<stop  offset="0.694" style="stop-color:#F0AE66"/>
				<stop  offset="0.6987" style="stop-color:#E8A964"/>
				<stop  offset="0.7057" style="stop-color:#D39D5E"/>
				<stop  offset="0.7143" style="stop-color:#B18955"/>
				<stop  offset="0.7164" style="stop-color:#A78352"/>
				<stop  offset="0.7332" style="stop-color:#A78352"/>
				<stop  offset="0.7364" style="stop-color:#B69261"/>
				<stop  offset="0.748" style="stop-color:#EBC594"/>
				<stop  offset="0.7537" style="stop-color:#FFD9A8"/>
				<stop  offset="0.7649" style="stop-color:#FFD9A8"/>
				<stop  offset="0.7671" style="stop-color:#ECC18E"/>
				<stop  offset="0.7705" style="stop-color:#D3A26D"/>
				<stop  offset="0.774" style="stop-color:#C08A53"/>
				<stop  offset="0.7776" style="stop-color:#B37941"/>
				<stop  offset="0.7813" style="stop-color:#AB6F36"/>
				<stop  offset="0.7854" style="stop-color:#A86C32"/>
				<stop  offset="0.8601" style="stop-color:#A26115"/>
				<stop  offset="0.8683" style="stop-color:#A46317"/>
				<stop  offset="0.8728" style="stop-color:#A9691F"/>
				<stop  offset="0.8765" style="stop-color:#B2742D"/>
				<stop  offset="0.8796" style="stop-color:#BE8441"/>
				<stop  offset="0.8825" style="stop-color:#CE985A"/>
				<stop  offset="0.8851" style="stop-color:#E2B179"/>
				<stop  offset="0.8876" style="stop-color:#FACD9E"/>
				<stop  offset="0.8881" style="stop-color:#FFD4A6"/>
				<stop  offset="0.8993" style="stop-color:#FFD4A6"/>
				<stop  offset="0.9254" style="stop-color:#BD8F61"/>
				<stop  offset="0.9319" style="stop-color:#BB8D60"/>
				<stop  offset="0.9354" style="stop-color:#B3885C"/>
				<stop  offset="0.9382" style="stop-color:#A57E56"/>
				<stop  offset="0.9405" style="stop-color:#92704E"/>
				<stop  offset="0.9422" style="stop-color:#806346"/>
				<stop  offset="0.9534" style="stop-color:#806346"/>
				<stop  offset="0.9552" style="stop-color:#806346"/>
				<stop  offset="0.9638" style="stop-color:#826548"/>
				<stop  offset="0.9668" style="stop-color:#876C4D"/>
				<stop  offset="0.969" style="stop-color:#927758"/>
				<stop  offset="0.9708" style="stop-color:#A08866"/>
				<stop  offset="0.9723" style="stop-color:#B39E79"/>
				<stop  offset="0.9737" style="stop-color:#CBBA91"/>
				<stop  offset="0.9749" style="stop-color:#E6D9AC"/>
				<stop  offset="0.9757" style="stop-color:#FFF6C5"/>
				<stop  offset="1" style="stop-color:#FFF6C5"/>
			</linearGradient>
			<path fill="url(#SVGID_6_)" d="M1125.2815,273.3414c90.8716,0,183.1624,10.3756,274.3083,30.8383
				c94.1743,21.1427,189.7729,53.6484,284.141,96.614c87.5959,39.8713,178.549,92.3,278.0559,160.2817
				c81.062,55.3806,168.6234,121.8326,267.6874,203.154l2.5273,2.0746l2.5356-2.064
				c36.1816-29.4503,70.0996-57.8313,102.9011-85.278c17.5249-14.664,34.0779-28.5147,50.001-41.7084
				c40.3577-34.0519,83.5125-70.645,125.6348-107.5007c4.9453-3.9312,11.0339-6.0946,17.1555-6.0946
				c7.2334,0,14.0627,3.016,18.7371,8.2747l0.0779,0.088l0.0833,0.083c4.6765,4.6766,7.1411,11.0239,6.9397,17.8733
				c-0.2029,6.911-3.1423,13.3837-8.0469,17.7437c-42.5142,37.3607-85.6228,73.938-128.1294,108.716l-0.0276,0.0223l-0.0273,0.0233
				c-52.8723,44.8613-99.8896,84.254-143.738,120.4293l-3.7209,3.07l3.7061,3.0883
				c49.0212,40.851,97.6843,82.3651,144.7449,122.5124c43.5901,37.1865,84.7659,72.3134,125.9138,106.7063
				c11.1277,10.0607,12.5747,25.6547,3.4524,37.1428c-4.6743,5.2124-11.6636,8.1995-19.1938,8.1995
				c-6.3027,0-12.1772-2.1366-16.542-6.0164l-0.0435-0.0386l-0.0442-0.037c-44.5598-37.3514-90.0261-76.053-138.1624-117.0273
				c-46.0283-39.18-93.624-79.694-141.6238-120.0134l-2.553-2.1447l-2.5688,2.125
				c-98.2117,81.237-211.2877,172.4327-305.3171,232.8803c-66.5927,43.0437-134.0626,81.2397-200.536,113.5273
				c-66.4139,32.2587-133.6869,59.52-199.9503,81.0266c-66.2136,21.4905-133.2689,37.8351-199.3026,48.5801
				c-65.9987,10.739-132.822,16.184-198.6136,16.184c-69.8461,0-140.5464-6.132-210.1381-18.226
				c-69.5903-12.094-140.0236-30.4886-209.3427-54.673c-69.3323-24.1891-139.4937-54.848-208.5347-91.1257
				c-69.0627-36.2887-138.9387-79.2153-207.6953-127.5936c-5.7588-4.0313-62.3708-47.7052-124.2665-96.9799
				c311.2678,229.368,623.2935,345.4012,929.8795,345.4012c265.8839,0,535.198-87.014,800.4719-258.6323
				c74.577-48.5878,170.4495-121.1257,293.0959-221.7584l3.7805-3.102l-3.79-3.0903
				c-211.5924-172.5297-374.0531-280.5583-526.7727-350.278c-188.7577-85.7627-381.4447-129.254-572.7244-129.266h-0.0657
				c-306.8458,0-609.2705,108.6241-901.6602,323.4135c32.1393-25.4854,64.2962-49.6316,96.3486-72.3382
				c88.227-62.502,178.06-115.7916,267.004-158.3893c92.7714-44.4307,187.1423-78.4574,280.491-101.135
				C928.9611,285.3064,1027.6941,273.3414,1125.2815,273.3414 M1125.2815,269.3413
				c-401.0372,0-768.5629,197.7567-1096.6067,503.4541l-28.497,27.202c324.5735-294.5859,694.1074-478.6693,1089.5448-478.644
				c185.3126,0.0118,376.3774,40.4559,571.0538,128.9077c178.7543,81.605,357.5083,212.4323,525.8995,349.7363
				c-101.0349,82.9003-207.2509,165.8007-292.7422,221.4993c-273.8768,177.1836-539.9331,257.9835-798.2885,257.9835
				c-381.9253,0-747.001-176.6028-1095.4675-479.4828c-2.5907,14.2484,274.6077,229.2714,287.5607,238.3387
				c276.8499,194.7955,556.3652,292.3414,838.0045,292.3414c265.2177,0,532.3281-86.5725,800.5742-259.9587
				c90.672-58.2894,200.7744-146.371,305.6951-233.1573c97.1489,81.605,191.7073,163.2103,279.7888,237.0433
				c5.3169,4.726,12.2473,7.0266,19.1995,7.0266c8.292,0,16.614-3.2759,22.2507-9.6173
				c10.3625-12.953,9.0671-31.0873-3.8857-42.7452c-86.7864-72.5381-177.4587-151.5524-270.7217-229.2714
				c51.8127-42.7457,101.0349-84.196,143.7803-120.4647c42.7456-34.9736,85.491-71.2427,128.2368-108.807
				c11.6575-10.3623,12.9529-29.7924,1.2952-41.45c-5.6372-6.342-13.5745-9.6173-21.7266-9.6173
				c-6.833,0-13.8171,2.3013-19.7236,7.0266c-41.45,36.2687-84.1958,72.5377-125.646,107.5114
				c-45.3362,37.5643-97.1492,81.605-152.8477,126.9413c-173.5728-142.485-358.8035-278.4937-546.6244-363.9847
				C1492.2822,309.2319,1305.4042,269.3413,1125.2815,269.3413L1125.2815,269.3413z"/>
		</g>
	</g>
</g>
</svg>
