<?xml version="1.0"?>
<svg xmlns:rdf="http://www.w3.org/1999/02/22-rdf-syntax-ns#" xmlns="http://www.w3.org/2000/svg" xmlns:cc="http://creativecommons.org/ns#" xmlns:dc="http://purl.org/dc/elements/1.1/" xmlns:svg="http://www.w3.org/2000/svg" id="svg2" viewBox="0 0 236.68 192.17" version="1.1">
  <g id="layer1" transform="translate(-179.5 -422.84)">
    <path id="path3788" d="m363.93 564.51s18.929-3.2143 21.786-0.71428c2.8571 2.5-5.3571 7.5-0.71429 9.6428 4.6429 2.1429 29.286 7.8572 28.929 10.714-0.35715 2.8572-23.571 12.143-31.071 12.857-7.5 0.71429-31.429-1.0714-36.071-1.7857-4.6429-0.71429-10.357-8.5714-11.429-8.5714h-8.5714z" fill="#f00"/>
    <path id="path3779-5-5" d="m290 452.36c0 5.5228-22.386 10-50 10s-50-4.4772-50-10 22.386-10 50-10 50 4.4772 50 10z" transform="translate(115.68 -18.976)" stroke="#000" stroke-linecap="round" stroke-width="1.1" fill="#fff"/>
    <path id="path3779-0-1-2" d="m290 452.36c0 5.5228-22.386 10-50 10s-50-4.4772-50-10 22.386-10 50-10 50 4.4772 50 10z" transform="translate(117.82 -11.119)" stroke="#000" stroke-linecap="round" stroke-width="1.1" fill="#f00"/>
    <path id="path3785-9-4" stroke="#fff" stroke-width="1px" fill="none" d="m305.68 433.39s-10 30-10 50 30 80 30 80 10 10 30 10 30-10 30-10 30-60 30-80-10-50-10-50"/>
    <path id="path3787-9-6" stroke="#000" stroke-width="1px" fill="none" d="m295.68 483.39c19.997 6.9348 39.994 10.131 59.99 9.9966 20.003-0.1347 40.006-3.6027 60.01-9.9966"/>
    <path id="path3789-2-1" stroke="#000" stroke-width="1px" fill="none" d="m305.68 513.39c18.347 7.8982 35.072 10.932 50.714 10.714 17.538-0.24358 33.714-4.5735 49.286-10.714"/>
    <path id="path3809-9-5" d="m334.03 491.3c-10.237-1.38-20.437-3.5136-29.533-6.1777l-7.6786-2.2491v-3.7426c0-5.4964 2.4843-19.115 5.8105-31.851l2.9199-11.181 3.3134 1.6568c8.3038 4.1522 23.603 6.2178 46.171 6.2337 22.755 0.0161 37.542-1.8017 46.265-5.6873 2.2671-1.0098 4.2777-1.6804 4.468-1.49 0.19032 0.19031 1.7672 5.9426 3.5043 12.783 3.1446 12.383 5.4057 25.101 5.4057 30.407v2.7868l-8.3929 2.2817c-18.753 5.0983-29.771 6.6524-49.464 6.9777-10.509 0.17358-17.703-0.0626-22.789-0.74816z" stroke="#000" stroke-linecap="round" stroke-width=".78571" fill="#fff"/>
    <path id="path3811-7-8" d="m343.42 571.05c-5.2447-1.3301-12.765-4.7772-15.682-7.1882-2.3524-1.9443-23.202-47.993-22.189-49.007 0.20018-0.20017 2.8994 0.61701 5.9983 1.816 13.856 5.3609 27.823 7.9179 43.491 7.9621 14.934 0.0421 28.406-2.4052 44.537-8.0904 3.2813-1.1564 6.1132-1.9553 6.2932-1.7753 0.60028 0.60028-13.023 32.135-18.952 43.871-2.7234 5.3901-6.8286 8.4004-15.45 11.329-7.6356 2.5937-20.18 3.0779-28.048 1.0826z" stroke="#000" stroke-linecap="round" stroke-width=".78571" fill="#fff"/>
    <path id="path3813-0-2" d="m336.48 521.63c-9.6791-1.7356-16.165-3.5322-24.348-6.7448-4.2043-1.6505-6.4725-2.2202-6.7906-1.7056-0.94368 1.5269-8.5207-22.383-8.5207-26.888v-1.6497l5.6486 1.7347c16.571 5.089 33.318 7.5048 52.134 7.5208 18.505 0.0157 35.254-2.3296 53.902-7.5477l6.3271-1.7705-0.47905 3.1945c-1.0595 7.065-7.4197 26.662-8.2285 25.353-0.32448-0.52503-2.0518-0.18297-5.3555 1.0606-7.0425 2.6508-16.112 5.2221-24.305 6.8906-10.628 2.1643-29.536 2.4253-39.983 0.55202z" stroke="#000" stroke-linecap="round" stroke-width=".78571" fill="#fff"/>
    <path id="path3815-6-5" stroke="#000" stroke-width="1px" fill="none" d="m305.68 513.39 10-25 10 30 10-25 10 30 10-30 10 30 10-30 10 25 10-30 10 25"/>
    <path id="path3779" stroke-width="1.1" stroke="#000" stroke-linecap="round" d="m290 452.36c0 5.5228-22.386 10-50 10s-50-4.4772-50-10 22.386-10 50-10 50 4.4772 50 10z"/>
    <path id="path3779-0" d="m290 452.36c0 5.5228-22.386 10-50 10s-50-4.4772-50-10 22.386-10 50-10 50 4.4772 50 10z" transform="translate(2.1429 7.8571)" stroke="#000" stroke-linecap="round" stroke-width="1.1" fill="#f00"/>
    <path id="path3785" stroke="#000" stroke-width="1px" fill="none" d="m190 452.36s-10 30-10 50 30 80 30 80 10 10 30 10 30-10 30-10 30-60 30-80-10-50-10-50"/>
    <path id="path3787" stroke="#000" stroke-width="1px" fill="none" d="m180 502.36c19.997 6.9348 39.994 10.131 59.99 9.9966 20.003-0.1347 40.006-3.6027 60.01-9.9966"/>
    <path id="path3789" stroke="#000" stroke-width="1px" fill="none" d="m190 532.36c18.347 7.8982 35.072 10.932 50.714 10.714 17.538-0.24358 33.714-4.5735 49.286-10.714"/>
    <path id="path3809" stroke-width=".78571" stroke="#000" stroke-linecap="round" d="m218.35 510.27c-10.237-1.38-20.437-3.5136-29.533-6.1777l-7.6786-2.2491v-3.7426c0-5.4964 2.4843-19.115 5.8105-31.851l2.9199-11.181 3.3134 1.6568c8.3038 4.1522 23.603 6.2178 46.171 6.2337 22.755 0.0161 37.542-1.8017 46.265-5.6873 2.2671-1.0098 4.2777-1.6804 4.468-1.49 0.19032 0.19031 1.7672 5.9426 3.5043 12.783 3.1446 12.383 5.4057 25.101 5.4057 30.407v2.7868l-8.3929 2.2817c-18.753 5.0983-29.771 6.6524-49.464 6.9777-10.509 0.17358-17.703-0.0626-22.789-0.74816z"/>
    <path id="path3811" stroke-width=".78571" stroke="#000" stroke-linecap="round" d="m227.74 590.02c-5.2447-1.3301-12.765-4.7772-15.682-7.1882-2.3524-1.9443-23.202-47.993-22.189-49.007 0.20018-0.20017 2.8994 0.61701 5.9983 1.816 13.856 5.3609 27.823 7.9179 43.491 7.9621 14.934 0.0421 28.406-2.4052 44.537-8.0904 3.2813-1.1564 6.1132-1.9553 6.2932-1.7753 0.60028 0.60028-13.023 32.135-18.952 43.871-2.7234 5.3901-6.8286 8.4004-15.45 11.329-7.6356 2.5937-20.18 3.0779-28.048 1.0826z"/>
    <path id="path3813" stroke-width=".78571" stroke="#000" stroke-linecap="round" d="m220.8 540.61c-9.6791-1.7356-16.165-3.5322-24.348-6.7448-4.2043-1.6505-6.4725-2.2202-6.7906-1.7056-0.94368 1.5269-8.5207-22.383-8.5207-26.888v-1.6497l5.6486 1.7347c16.571 5.089 33.318 7.5048 52.134 7.5208 18.505 0.0157 35.254-2.3296 53.902-7.5477l6.3271-1.7705-0.47905 3.1945c-1.0595 7.065-7.4197 26.662-8.2285 25.353-0.32448-0.52503-2.0518-0.18297-5.3555 1.0606-7.0425 2.6508-16.112 5.2221-24.305 6.8906-10.628 2.1643-29.536 2.4253-39.983 0.55202z"/>
    <path id="path3815" stroke="#fff" stroke-width="1px" fill="none" d="m190 532.36 10-25 10 30 10-25 10 30 10-30 10 30 10-30 10 25 10-30 10 25"/>
    <path id="path3779-5" d="m290 452.36c0 5.5228-22.386 10-50 10s-50-4.4772-50-10 22.386-10 50-10 50 4.4772 50 10z" transform="translate(68.571 22.143)" stroke="#fff" stroke-linecap="round" stroke-width="1.1"/>
    <path id="path3779-0-1" d="m290 452.36c0 5.5228-22.386 10-50 10s-50-4.4772-50-10 22.386-10 50-10 50 4.4772 50 10z" transform="translate(70.714 30)" stroke="#000" stroke-linecap="round" stroke-width="1.1" fill="#fff"/>
    <path id="path3785-9" stroke="#fff" stroke-width="1px" fill="none" d="m258.57 474.51s-10 30-10 50 30 80 30 80 10 10 30 10 30-10 30-10 30-60 30-80-10-50-10-50"/>
    <path id="path3787-9" stroke="#000" stroke-width="1px" fill="none" d="m248.57 524.51c19.997 6.9348 39.994 10.131 59.99 9.9966 20.003-0.1347 40.006-3.6027 60.01-9.9966"/>
    <path id="path3789-2" stroke="#000" stroke-width="1px" fill="none" d="m258.57 554.51c18.347 7.8982 35.072 10.932 50.714 10.714 17.538-0.24358 33.714-4.5735 49.286-10.714"/>
    <path id="path3809-9" stroke-width=".586" stroke="#000" stroke-linecap="round" d="m286.93 532.42c-10.237-1.38-20.437-3.5136-29.533-6.1777l-7.6786-2.2491v-3.7426c0-5.4964 2.4843-19.115 5.8105-31.851l2.9199-11.181 3.3134 1.6568c8.3038 4.1522 23.603 6.2178 46.171 6.2337 22.755 0.0161 37.542-1.8017 46.265-5.6873 2.2671-1.0098 4.2777-1.6804 4.468-1.49 0.19032 0.19031 1.7672 5.9426 3.5043 12.783 3.1446 12.383 5.4057 25.101 5.4057 30.407v2.7868l-8.3929 2.2817c-18.753 5.0983-29.771 6.6524-49.464 6.9777-10.509 0.17358-17.703-0.0626-22.789-0.74816z"/>
    <path id="path3811-7" stroke-width=".78571" stroke="#000" stroke-linecap="round" d="m296.31 612.17c-5.2447-1.3301-12.765-4.7772-15.682-7.1882-2.3524-1.9443-23.202-47.993-22.189-49.007 0.20018-0.20017 2.8994 0.61701 5.9983 1.816 13.856 5.3609 27.823 7.9179 43.491 7.9621 14.934 0.0421 28.406-2.4052 44.537-8.0904 3.2813-1.1564 6.1132-1.9553 6.2932-1.7753 0.60028 0.60028-13.023 32.135-18.952 43.871-2.7234 5.3901-6.8286 8.4004-15.45 11.329-7.6356 2.5937-20.18 3.0779-28.048 1.0826z"/>
    <path id="path3813-0" stroke-width=".786" stroke="#000" stroke-linecap="round" d="m289.37 562.75c-9.6791-1.7356-16.165-3.5322-24.348-6.7448-4.2043-1.6505-6.4725-2.2202-6.7906-1.7056-0.94368 1.5269-8.5207-22.383-8.5207-26.888v-1.6497l5.6486 1.7347c16.571 5.089 33.318 7.5048 52.134 7.5208 18.505 0.0157 35.254-2.3296 53.902-7.5477l6.3271-1.7705-0.47905 3.1945c-1.0595 7.065-7.4197 26.662-8.2285 25.353-0.32448-0.52503-2.0518-0.18297-5.3555 1.0606-7.0425 2.6508-16.112 5.2221-24.305 6.8906-10.628 2.1643-29.536 2.4253-39.983 0.55202z"/>
    <path id="path3815-6" stroke="#fff" stroke-width="1px" fill="none" d="m258.57 554.51 10-25 10 30 10-25 10 30 10-30 10 30 10-30 10 25 10-30 10 25"/>
  </g>
  <metadata>
    <rdf:RDF>
      <cc:Work>
        <dc:format>image/svg+xml</dc:format>
        <dc:type rdf:resource="http://purl.org/dc/dcmitype/StillImage"/>
        <cc:license rdf:resource="http://creativecommons.org/licenses/publicdomain/"/>
        <dc:publisher>
          <cc:Agent rdf:about="http://openclipart.org/">
            <dc:title>Openclipart</dc:title>
          </cc:Agent>
        </dc:publisher>
        <dc:title>Water and Wine (Marriage at Cana)</dc:title>
        <dc:date>2013-09-16T21:37:25</dc:date>
        <dc:description/>
        <dc:source>http://openclipart.org/detail/183530/water-and-wine-marriage-at-cana-by-ictusgpr-183530</dc:source>
        <dc:creator>
          <cc:Agent>
            <dc:title>ictusgpr</dc:title>
          </cc:Agent>
        </dc:creator>
        <dc:subject>
          <rdf:Bag>
            <rdf:li>Cana</rdf:li>
            <rdf:li>Catholic</rdf:li>
            <rdf:li>Christian</rdf:li>
            <rdf:li>Jesus</rdf:li>
            <rdf:li>Miracle</rdf:li>
            <rdf:li>Religion</rdf:li>
            <rdf:li>Water</rdf:li>
            <rdf:li>Wine</rdf:li>
          </rdf:Bag>
        </dc:subject>
      </cc:Work>
      <cc:License rdf:about="http://creativecommons.org/licenses/publicdomain/">
        <cc:permits rdf:resource="http://creativecommons.org/ns#Reproduction"/>
        <cc:permits rdf:resource="http://creativecommons.org/ns#Distribution"/>
        <cc:permits rdf:resource="http://creativecommons.org/ns#DerivativeWorks"/>
      </cc:License>
    </rdf:RDF>
  </metadata>
</svg>
